<?xml version="1.0" encoding="utf-8" standalone="no"?>
<!DOCTYPE svg PUBLIC "-//W3C//DTD SVG 1.1//EN"
  "http://www.w3.org/Graphics/SVG/1.1/DTD/svg11.dtd">
<!-- Created with matplotlib (http://matplotlib.org/) -->
<svg height="324.49pt" version="1.1" viewBox="0 0 498.45625 324.49" width="498.45625pt" xmlns="http://www.w3.org/2000/svg" xmlns:xlink="http://www.w3.org/1999/xlink">
 <defs>
  <style type="text/css">
*{stroke-linecap:butt;stroke-linejoin:round;}
  </style>
 </defs>
 <g id="figure_1">
  <g id="patch_1">
   <path d="M 0 324.49 
L 498.45625 324.49 
L 498.45625 0 
L 0 0 
z
" style="fill:#ffffff;"/>
  </g>
  <g id="axes_1">
   <g id="patch_2">
    <path d="M 41.35625 282.5 
L 487.75625 282.5 
L 487.75625 10.7 
L 41.35625 10.7 
z
" style="fill:#ffffff;"/>
   </g>
   <g id="matplotlib.axis_1">
    <g id="xtick_1">
     <g id="line2d_1">
      <defs>
       <path d="M 0 0 
L 0 3.5 
" id="mfb945954ac" style="stroke:#000000;stroke-width:0.8;"/>
      </defs>
      <g>
       <use style="stroke:#000000;stroke-width:0.8;" x="61.647159" xlink:href="#mfb945954ac" y="282.5"/>
      </g>
     </g>
     <g id="text_1">
      <!-- 1 -->
      <defs>
       <path d="M 8.296875 0 
L 8.296875 2.59375 
Q 12.109375 3.03125 14.640625 3.59375 
Q 17.1875 4.15625 18.703125 4.734375 
Q 20.21875 5.328125 20.84375 5.890625 
Q 21.484375 6.453125 21.484375 6.984375 
L 21.484375 45.90625 
Q 21.484375 47.859375 21.328125 48.921875 
Q 21.1875 50 20.609375 50.6875 
Q 20.3125 50.984375 19.484375 51.171875 
Q 18.65625 51.375 17.140625 51.3125 
Q 15.625 51.265625 13.328125 50.96875 
Q 11.03125 50.6875 7.8125 50 
L 6.78125 52.484375 
Q 8.84375 53.078125 11.640625 54.09375 
Q 14.453125 55.125 17.328125 56.3125 
Q 20.21875 57.515625 22.796875 58.703125 
Q 25.390625 59.90625 27 60.796875 
L 28.8125 59.078125 
L 28.8125 6.984375 
Q 28.8125 6.5 29.34375 5.9375 
Q 29.890625 5.375 31.25 4.78125 
Q 32.625 4.203125 34.984375 3.609375 
Q 37.359375 3.03125 41.015625 2.59375 
L 41.015625 0 
z
" id="GentiumBasic-31"/>
      </defs>
      <g transform="translate(58.831847 298.5825)scale(0.12 -0.12)">
       <use xlink:href="#GentiumBasic-31"/>
      </g>
     </g>
    </g>
    <g id="xtick_2">
     <g id="line2d_2">
      <g>
       <use style="stroke:#000000;stroke-width:0.8;" x="142.810795" xlink:href="#mfb945954ac" y="282.5"/>
      </g>
     </g>
     <g id="text_2">
      <!-- 2 -->
      <defs>
       <path d="M 40.09375 0 
L 6.203125 0 
L 4.78125 3.609375 
Q 10.59375 10.359375 14.90625 15.53125 
Q 19.234375 20.703125 22.3125 24.671875 
Q 25.390625 28.65625 27.390625 31.65625 
Q 29.390625 34.671875 30.5625 37.03125 
Q 31.734375 39.40625 32.171875 41.328125 
Q 32.625 43.265625 32.625 45.125 
Q 32.625 47.359375 32.078125 49.328125 
Q 31.546875 51.3125 30.375 52.78125 
Q 29.203125 54.25 27.3125 55.078125 
Q 25.4375 55.90625 22.796875 55.90625 
Q 20.796875 55.90625 19.109375 54.921875 
Q 17.4375 53.953125 16.234375 52.46875 
Q 15.046875 50.984375 14.359375 49.140625 
Q 13.671875 47.3125 13.671875 45.609375 
Q 12.84375 45.171875 12.1875 44.78125 
Q 11.53125 44.390625 10.84375 44.0625 
Q 10.15625 43.75 9.34375 43.53125 
Q 8.546875 43.3125 7.421875 43.21875 
L 6.109375 44.671875 
Q 6.109375 47.21875 7.8125 49.96875 
Q 9.515625 52.734375 12.34375 55.03125 
Q 15.1875 57.328125 18.765625 58.8125 
Q 22.359375 60.296875 26.125 60.296875 
Q 29.046875 60.296875 31.609375 59.46875 
Q 34.1875 58.640625 36.078125 56.953125 
Q 37.984375 55.28125 39.078125 52.65625 
Q 40.1875 50.046875 40.1875 46.484375 
Q 40.1875 44.28125 39.546875 42.078125 
Q 38.921875 39.890625 37.578125 37.328125 
Q 36.234375 34.765625 34.109375 31.734375 
Q 31.984375 28.71875 28.953125 24.921875 
Q 25.921875 21.140625 21.96875 16.453125 
Q 18.015625 11.765625 12.984375 5.90625 
L 33.40625 5.90625 
Q 34.234375 5.90625 34.890625 6.265625 
Q 35.546875 6.640625 36.0625 7.25 
Q 36.578125 7.859375 36.9375 8.640625 
Q 37.3125 9.421875 37.546875 10.25 
Q 38.140625 12.15625 38.375 14.59375 
L 40.828125 14.015625 
z
" id="GentiumBasic-32"/>
      </defs>
      <g transform="translate(139.995483 298.5825)scale(0.12 -0.12)">
       <use xlink:href="#GentiumBasic-32"/>
      </g>
     </g>
    </g>
    <g id="xtick_3">
     <g id="line2d_3">
      <g>
       <use style="stroke:#000000;stroke-width:0.8;" x="223.974432" xlink:href="#mfb945954ac" y="282.5"/>
      </g>
     </g>
     <g id="text_3">
      <!-- 3 -->
      <defs>
       <path d="M 40.28125 18.609375 
Q 40.28125 14.5 38.953125 10.828125 
Q 37.640625 7.171875 35.046875 4.4375 
Q 32.46875 1.703125 28.65625 0.109375 
Q 24.859375 -1.46875 19.828125 -1.46875 
Q 17.921875 -1.46875 15.921875 -1.125 
Q 13.921875 -0.78125 11.84375 0.0625 
Q 9.765625 0.921875 7.640625 2.3125 
Q 5.515625 3.71875 3.328125 5.8125 
L 4.984375 9.078125 
Q 7.171875 7.421875 9 6.34375 
Q 10.84375 5.28125 12.46875 4.609375 
Q 14.109375 3.953125 15.71875 3.6875 
Q 17.328125 3.421875 19.1875 3.421875 
Q 22.171875 3.421875 24.609375 4.375 
Q 27.046875 5.328125 28.796875 7.078125 
Q 30.5625 8.84375 31.515625 11.359375 
Q 32.46875 13.875 32.46875 17 
Q 32.46875 20.65625 31.3125 23.21875 
Q 30.171875 25.78125 28.390625 27.390625 
Q 26.609375 29 24.390625 29.703125 
Q 22.171875 30.421875 20.015625 30.421875 
L 19 30.421875 
Q 18.703125 30.421875 18.4375 30.375 
Q 18.171875 30.328125 17.796875 30.265625 
Q 17.4375 30.21875 16.703125 30.078125 
L 16.015625 33.015625 
Q 20.515625 34.234375 23.1875 35.84375 
Q 25.875 37.453125 27.3125 39.1875 
Q 28.765625 40.921875 29.21875 42.65625 
Q 29.6875 44.390625 29.6875 45.90625 
Q 29.6875 47.5625 29.171875 49.34375 
Q 28.65625 51.125 27.5625 52.578125 
Q 26.46875 54.046875 24.796875 54.96875 
Q 23.140625 55.90625 20.796875 55.90625 
Q 18.84375 55.90625 17.296875 55.21875 
Q 15.765625 54.546875 14.734375 53.375 
Q 13.71875 52.203125 13.296875 50.6875 
Q 12.890625 49.171875 13.1875 47.515625 
Q 11.53125 46.6875 10.015625 46.21875 
Q 8.5 45.75 6.390625 45.609375 
L 5.078125 47.125 
Q 5.078125 49.171875 6.59375 51.484375 
Q 8.109375 53.8125 10.640625 55.765625 
Q 13.1875 57.71875 16.53125 59 
Q 19.875 60.296875 23.578125 60.296875 
Q 27.25 60.296875 29.859375 59.125 
Q 32.46875 57.953125 34.171875 56.03125 
Q 35.890625 54.109375 36.6875 51.6875 
Q 37.5 49.265625 37.5 46.78125 
Q 37.5 44.921875 36.765625 43.109375 
Q 36.03125 41.3125 34.6875 39.640625 
Q 33.34375 37.984375 31.421875 36.5625 
Q 29.5 35.15625 27.09375 34.078125 
Q 29.890625 33.734375 32.296875 32.390625 
Q 34.71875 31.0625 36.46875 28.984375 
Q 38.234375 26.90625 39.25 24.234375 
Q 40.28125 21.578125 40.28125 18.609375 
z
" id="GentiumBasic-33"/>
      </defs>
      <g transform="translate(221.159119 298.5825)scale(0.12 -0.12)">
       <use xlink:href="#GentiumBasic-33"/>
      </g>
     </g>
    </g>
    <g id="xtick_4">
     <g id="line2d_4">
      <g>
       <use style="stroke:#000000;stroke-width:0.8;" x="305.138068" xlink:href="#mfb945954ac" y="282.5"/>
      </g>
     </g>
     <g id="text_4">
      <!-- 4 -->
      <defs>
       <path d="M 28.5625 50.78125 
L 10.40625 22.46875 
L 28.5625 22.46875 
z
M 42.671875 21 
Q 41.65625 19.4375 40.796875 18.671875 
Q 39.9375 17.921875 38.8125 17.09375 
L 35.40625 17.09375 
L 35.40625 5.078125 
Q 35.40625 4.6875 35.6875 4.359375 
Q 35.984375 4.046875 36.765625 3.6875 
Q 37.546875 3.328125 38.859375 2.9375 
Q 40.1875 2.546875 42.1875 2.09375 
L 42.1875 0 
L 18.3125 0 
L 18.3125 2.09375 
Q 21.484375 2.640625 23.484375 3.09375 
Q 25.484375 3.5625 26.609375 3.96875 
Q 27.734375 4.390625 28.140625 4.78125 
Q 28.5625 5.171875 28.5625 5.609375 
L 28.5625 17.09375 
L 4.296875 17.09375 
L 2.6875 18.703125 
L 26.90625 57.328125 
Q 28.953125 58.203125 30.5625 59.125 
Q 32.171875 60.0625 33.59375 60.796875 
L 35.40625 59.078125 
L 35.40625 22.46875 
L 41.40625 22.46875 
z
" id="GentiumBasic-34"/>
      </defs>
      <g transform="translate(302.322756 298.5825)scale(0.12 -0.12)">
       <use xlink:href="#GentiumBasic-34"/>
      </g>
     </g>
    </g>
    <g id="xtick_5">
     <g id="line2d_5">
      <g>
       <use style="stroke:#000000;stroke-width:0.8;" x="386.301705" xlink:href="#mfb945954ac" y="282.5"/>
      </g>
     </g>
     <g id="text_5">
      <!-- 5 -->
      <defs>
       <path d="M 40.828125 20.015625 
Q 40.828125 15.765625 39.53125 11.890625 
Q 38.234375 8.015625 35.765625 5.03125 
Q 33.296875 2.046875 29.6875 0.28125 
Q 26.078125 -1.46875 21.484375 -1.46875 
Q 16.9375 -1.46875 12.5 0.1875 
Q 8.0625 1.859375 3.8125 5.8125 
L 5.515625 9.078125 
Q 8.109375 7.28125 10.234375 6.171875 
Q 12.359375 5.078125 14.15625 4.46875 
Q 15.96875 3.859375 17.484375 3.640625 
Q 19 3.421875 20.40625 3.421875 
Q 23.578125 3.421875 25.953125 4.640625 
Q 28.328125 5.859375 29.890625 7.875 
Q 31.453125 9.90625 32.234375 12.515625 
Q 33.015625 15.140625 33.015625 17.921875 
Q 33.015625 21.234375 32.203125 23.96875 
Q 31.390625 26.703125 29.75 28.625 
Q 28.125 30.5625 25.609375 31.640625 
Q 23.09375 32.71875 19.671875 32.71875 
Q 18.65625 32.71875 17.328125 32.46875 
Q 16.015625 32.234375 14.578125 31.734375 
Q 13.140625 31.25 11.6875 30.515625 
Q 10.25 29.78125 8.984375 28.8125 
L 6.6875 30.421875 
Q 6.984375 32.171875 7.375 34.484375 
Q 7.765625 36.8125 8.171875 39.40625 
Q 8.59375 42 9 44.703125 
Q 9.421875 47.40625 9.765625 49.96875 
Q 10.109375 52.546875 10.34375 54.828125 
Q 10.59375 57.125 10.6875 58.84375 
L 31.984375 58.84375 
Q 33.40625 58.84375 34.46875 58.953125 
Q 35.546875 59.078125 36.328125 59.28125 
Q 37.203125 59.46875 37.890625 59.71875 
L 39.3125 58.296875 
Q 38.765625 57.515625 38.0625 56.65625 
Q 37.359375 55.8125 36.625 55.03125 
Q 35.890625 54.25 35.171875 53.59375 
Q 34.46875 52.9375 33.890625 52.484375 
L 14.984375 52.484375 
Q 14.890625 51.078125 14.640625 48.84375 
Q 14.40625 46.625 14.078125 44.3125 
Q 13.765625 42 13.421875 39.9375 
Q 13.09375 37.890625 12.890625 36.8125 
Q 14.84375 37.40625 17.484375 37.75 
Q 20.125 38.09375 22.609375 38.09375 
Q 27.046875 38.09375 30.4375 36.59375 
Q 33.84375 35.109375 36.125 32.609375 
Q 38.421875 30.125 39.625 26.84375 
Q 40.828125 23.578125 40.828125 20.015625 
z
" id="GentiumBasic-35"/>
      </defs>
      <g transform="translate(383.486392 298.5825)scale(0.12 -0.12)">
       <use xlink:href="#GentiumBasic-35"/>
      </g>
     </g>
    </g>
    <g id="xtick_6">
     <g id="line2d_6">
      <g>
       <use style="stroke:#000000;stroke-width:0.8;" x="467.465341" xlink:href="#mfb945954ac" y="282.5"/>
      </g>
     </g>
     <g id="text_6">
      <!-- 6 -->
      <defs>
       <path d="M 24.421875 32.234375 
Q 21.921875 32.234375 18.921875 30.828125 
Q 15.921875 29.4375 13.1875 26.171875 
Q 13.1875 20.359375 14.140625 16.140625 
Q 15.09375 11.921875 16.84375 9.125 
Q 18.609375 6.34375 21.09375 5 
Q 23.578125 3.65625 26.609375 3.65625 
Q 29.25 3.65625 30.984375 4.90625 
Q 32.71875 6.15625 33.765625 8.078125 
Q 34.8125 10.015625 35.25 12.375 
Q 35.6875 14.75 35.6875 17 
Q 35.6875 21.578125 34.59375 24.53125 
Q 33.5 27.484375 31.828125 29.1875 
Q 30.171875 30.90625 28.1875 31.5625 
Q 26.21875 32.234375 24.421875 32.234375 
z
M 43.015625 20.125 
Q 43.015625 17.828125 42.5 15.328125 
Q 42 12.84375 40.9375 10.453125 
Q 39.890625 8.0625 38.34375 5.90625 
Q 36.8125 3.765625 34.78125 2.125 
Q 32.765625 0.484375 30.21875 -0.484375 
Q 27.6875 -1.46875 24.703125 -1.46875 
Q 20.703125 -1.46875 17.1875 0.3125 
Q 13.671875 2.09375 11.03125 5.3125 
Q 8.40625 8.546875 6.890625 13.0625 
Q 5.375 17.578125 5.375 23.09375 
Q 5.375 29.984375 7.34375 36.296875 
Q 9.328125 42.625 13.421875 47.703125 
Q 17.53125 52.78125 23.75 56.265625 
Q 29.984375 59.765625 38.484375 60.984375 
L 39.40625 58.109375 
Q 33.640625 56.78125 29.171875 54.125 
Q 24.703125 51.46875 21.5 47.953125 
Q 18.3125 44.4375 16.328125 40.25 
Q 14.359375 36.078125 13.625 31.734375 
Q 15.328125 33.40625 17.109375 34.515625 
Q 18.890625 35.640625 20.578125 36.328125 
Q 22.265625 37.015625 23.78125 37.296875 
Q 25.296875 37.59375 26.421875 37.59375 
Q 30.375 37.59375 33.453125 36.375 
Q 36.53125 35.15625 38.640625 32.875 
Q 40.765625 30.609375 41.890625 27.359375 
Q 43.015625 24.125 43.015625 20.125 
z
" id="GentiumBasic-36"/>
      </defs>
      <g transform="translate(464.650028 298.5825)scale(0.12 -0.12)">
       <use xlink:href="#GentiumBasic-36"/>
      </g>
     </g>
    </g>
    <g id="text_7">
     <!-- Number of cores -->
     <defs>
      <path d="M 2.4375 0 
L 2.4375 2.09375 
Q 6.0625 2.546875 7.78125 3.46875 
Q 9.515625 4.390625 9.515625 5.078125 
L 9.515625 56.109375 
Q 7.90625 57.625 6.125 58.375 
Q 4.34375 59.125 2.4375 59.421875 
L 2.4375 61.53125 
L 12.796875 61.53125 
Q 13.53125 61.53125 13.984375 61.40625 
Q 14.453125 61.28125 14.9375 60.890625 
Q 15.4375 60.5 15.984375 59.734375 
Q 16.546875 58.984375 17.484375 57.71875 
L 49.5625 13.484375 
L 49.5625 56.390625 
Q 49.5625 56.984375 47.96875 57.9375 
Q 46.390625 58.890625 42.484375 59.421875 
L 42.484375 61.53125 
L 62.5 61.53125 
L 62.5 59.421875 
Q 58.984375 58.9375 57.203125 58 
Q 55.421875 57.078125 55.421875 56.390625 
L 55.421875 -1.46875 
Q 52.984375 -1.171875 51.59375 -0.484375 
Q 50.203125 0.203125 49.609375 1.03125 
L 15.375 48.484375 
L 15.375 5.078125 
Q 15.375 4.5 17.015625 3.5625 
Q 18.65625 2.640625 22.46875 2.09375 
L 22.46875 0 
z
" id="GentiumBasic-4e"/>
      <path d="M 52.203125 4 
Q 50.390625 2.828125 48.734375 1.828125 
Q 47.078125 0.828125 45.65625 0.09375 
Q 44.234375 -0.640625 43.15625 -1.046875 
Q 42.09375 -1.46875 41.5 -1.46875 
Q 39.796875 -1.46875 38.71875 0.796875 
Q 37.640625 3.078125 37.359375 8.109375 
Q 34.328125 5.078125 31.8125 3.1875 
Q 29.296875 1.3125 27.171875 0.28125 
Q 25.046875 -0.734375 23.265625 -1.09375 
Q 21.484375 -1.46875 19.921875 -1.46875 
Q 17.625 -1.46875 15.515625 -0.828125 
Q 13.421875 -0.203125 11.8125 1.484375 
Q 10.203125 3.171875 9.25 6.09375 
Q 8.296875 9.03125 8.296875 13.625 
L 8.296875 34.71875 
Q 8.296875 37.0625 8.15625 38.359375 
Q 8.015625 39.65625 7.390625 40.3125 
Q 6.78125 40.96875 5.515625 41.203125 
Q 4.25 41.453125 2 41.703125 
L 2 43.65625 
Q 3.765625 43.84375 5.296875 44.140625 
Q 6.84375 44.4375 8.28125 44.828125 
Q 9.71875 45.21875 11.171875 45.71875 
Q 12.640625 46.234375 14.265625 46.875 
L 15.625 44.96875 
L 15.625 16.3125 
Q 15.625 12.890625 16.140625 10.59375 
Q 16.65625 8.296875 17.609375 6.921875 
Q 18.5625 5.5625 19.953125 4.96875 
Q 21.34375 4.390625 23.09375 4.390625 
Q 24.65625 4.390625 26.296875 4.859375 
Q 27.9375 5.328125 29.65625 6.328125 
Q 31.390625 7.328125 33.296875 8.90625 
Q 35.203125 10.5 37.359375 12.796875 
L 37.359375 34.71875 
Q 37.359375 36.921875 37.140625 38.234375 
Q 36.921875 39.546875 36.1875 40.28125 
Q 35.453125 41.015625 34.109375 41.3125 
Q 32.765625 41.609375 30.515625 41.703125 
L 30.515625 43.65625 
Q 34.03125 44.09375 37.25 45.015625 
Q 40.484375 45.953125 43.21875 46.875 
L 44.671875 44.96875 
L 44.671875 12.40625 
Q 44.671875 9.375 44.890625 7.46875 
Q 45.125 5.5625 45.796875 5.078125 
Q 46.390625 4.6875 47.796875 4.90625 
Q 49.21875 5.125 51.703125 6.203125 
z
" id="GentiumBasic-75"/>
      <path d="M 57.90625 0 
L 57.90625 2.09375 
Q 61.421875 3.03125 63.0625 3.703125 
Q 64.703125 4.390625 64.703125 5.078125 
L 64.703125 30.90625 
Q 64.703125 33.890625 64.375 35.859375 
Q 64.0625 37.84375 63.40625 38.96875 
Q 62.75 40.09375 61.6875 40.546875 
Q 60.640625 41.015625 59.1875 41.015625 
Q 57.5625 41.015625 55.75 40.109375 
Q 53.953125 39.203125 52.046875 37.515625 
Q 50.140625 35.84375 48.21875 33.421875 
Q 46.296875 31 44.4375 27.984375 
L 44.4375 5.078125 
Q 44.4375 4.390625 45.953125 3.734375 
Q 47.46875 3.078125 51.3125 2.09375 
L 51.3125 0 
L 30.328125 0 
L 30.328125 2.09375 
Q 33.84375 3.03125 35.46875 3.703125 
Q 37.109375 4.390625 37.109375 5.078125 
L 37.109375 30.90625 
Q 37.109375 33.890625 36.8125 35.859375 
Q 36.53125 37.84375 35.859375 38.96875 
Q 35.203125 40.09375 34.15625 40.546875 
Q 33.109375 41.015625 31.59375 41.015625 
Q 28.265625 41.015625 24.625 37.59375 
Q 21 34.1875 16.84375 27.984375 
L 16.84375 5.078125 
Q 16.84375 4.34375 18.671875 3.5625 
Q 20.515625 2.78125 23.6875 2.09375 
L 23.6875 0 
L 2.6875 0 
L 2.6875 2.09375 
Q 5.90625 2.9375 7.703125 3.59375 
Q 9.515625 4.25 9.515625 5.078125 
L 9.515625 34.71875 
Q 9.515625 36.671875 9.34375 37.796875 
Q 9.1875 38.921875 8.46875 39.53125 
Q 7.765625 40.140625 6.390625 40.421875 
Q 5.03125 40.71875 2.6875 41.015625 
L 2.6875 42.96875 
Q 4.546875 43.265625 6.109375 43.671875 
Q 7.671875 44.09375 9.078125 44.578125 
Q 10.5 45.0625 11.796875 45.640625 
Q 13.09375 46.234375 14.40625 46.875 
L 16.109375 45.171875 
L 16.65625 33.984375 
Q 18.84375 37.203125 21.09375 39.625 
Q 23.34375 42.046875 25.53125 43.65625 
Q 27.734375 45.265625 29.78125 46.0625 
Q 31.84375 46.875 33.59375 46.875 
Q 35.9375 46.875 37.90625 46.3125 
Q 39.890625 45.75 41.328125 44.40625 
Q 42.78125 43.0625 43.609375 40.859375 
Q 44.4375 38.671875 44.4375 35.40625 
L 44.4375 34.375 
Q 46.484375 37.453125 48.671875 39.765625 
Q 50.875 42.09375 53.046875 43.671875 
Q 55.21875 45.265625 57.296875 46.0625 
Q 59.375 46.875 61.1875 46.875 
Q 63.53125 46.875 65.5 46.234375 
Q 67.484375 45.609375 68.921875 44.28125 
Q 70.359375 42.96875 71.1875 40.9375 
Q 72.015625 38.921875 72.015625 36.1875 
L 72.015625 5.078125 
Q 72.015625 4.390625 73.53125 3.734375 
Q 75.046875 3.078125 78.90625 2.09375 
L 78.90625 0 
z
" id="GentiumBasic-6d"/>
      <path d="M 46.390625 24.03125 
Q 46.390625 21.1875 45.65625 18.203125 
Q 44.921875 15.234375 43.5 12.40625 
Q 42.09375 9.578125 40.03125 7.03125 
Q 37.984375 4.5 35.375 2.609375 
Q 32.765625 0.734375 29.640625 -0.359375 
Q 26.515625 -1.46875 22.90625 -1.46875 
Q 21.96875 -1.46875 20.328125 -1.046875 
Q 18.703125 -0.640625 16.578125 0.140625 
Q 14.453125 0.921875 11.953125 2.0625 
Q 9.46875 3.21875 6.84375 4.6875 
L 6.84375 63.28125 
Q 6.84375 65.53125 6.59375 66.75 
Q 6.34375 67.96875 5.65625 68.578125 
Q 4.984375 69.1875 3.734375 69.375 
Q 2.484375 69.578125 0.484375 69.828125 
L 0.484375 71.78125 
Q 3.71875 72.5625 6.640625 73.359375 
Q 9.578125 74.171875 12.359375 75.6875 
L 12.84375 75.203125 
Q 13.140625 74.90625 13.421875 74.65625 
Q 13.765625 74.359375 14.15625 74.03125 
L 14.15625 35.5 
Q 16.609375 38.421875 19.015625 40.5625 
Q 21.4375 42.71875 23.65625 44.109375 
Q 25.875 45.515625 27.78125 46.1875 
Q 29.6875 46.875 31.109375 46.875 
Q 34.421875 46.875 37.234375 45.3125 
Q 40.046875 43.75 42.0625 40.796875 
Q 44.09375 37.84375 45.234375 33.59375 
Q 46.390625 29.34375 46.390625 24.03125 
z
M 39.796875 19.921875 
Q 39.796875 24.8125 38.796875 28.59375 
Q 37.796875 32.375 36.109375 34.953125 
Q 34.421875 37.546875 32.21875 38.90625 
Q 30.03125 40.28125 27.6875 40.28125 
Q 26.8125 40.28125 25.359375 39.765625 
Q 23.921875 39.265625 22.109375 38.0625 
Q 20.3125 36.859375 18.265625 34.828125 
Q 16.21875 32.8125 14.15625 29.78125 
L 14.15625 9.90625 
Q 16.109375 8.453125 18.140625 7.46875 
Q 20.171875 6.5 22 5.9375 
Q 23.828125 5.375 25.3125 5.125 
Q 26.8125 4.890625 27.6875 4.890625 
Q 30.671875 4.890625 32.90625 6.171875 
Q 35.15625 7.46875 36.6875 9.59375 
Q 38.234375 11.71875 39.015625 14.40625 
Q 39.796875 17.09375 39.796875 19.921875 
z
" id="GentiumBasic-62"/>
      <path d="M 24.21875 41.75 
Q 21.6875 41.75 19.5625 40.765625 
Q 17.4375 39.796875 15.796875 38.015625 
Q 14.15625 36.234375 13.0625 33.765625 
Q 11.96875 31.296875 11.53125 28.328125 
L 32.421875 28.328125 
Q 33.546875 28.328125 33.90625 28.6875 
Q 34.28125 29.046875 34.28125 30.078125 
Q 34.28125 31.390625 33.90625 33.375 
Q 33.546875 35.359375 32.4375 37.234375 
Q 31.34375 39.109375 29.359375 40.421875 
Q 27.390625 41.75 24.21875 41.75 
z
M 42.28125 27.203125 
Q 41.40625 26.21875 39.9375 25.390625 
Q 38.484375 24.5625 36.921875 23.921875 
L 11.234375 23.921875 
Q 11.28125 20.125 12.28125 16.671875 
Q 13.28125 13.234375 15.15625 10.625 
Q 17.046875 8.015625 19.703125 6.453125 
Q 22.359375 4.890625 25.6875 4.890625 
Q 27.203125 4.890625 28.640625 5.078125 
Q 30.078125 5.28125 31.734375 5.953125 
Q 33.40625 6.640625 35.421875 7.953125 
Q 37.453125 9.28125 40.1875 11.53125 
Q 40.828125 11.1875 41.28125 10.546875 
Q 41.75 9.90625 42 9.515625 
Q 38.71875 5.953125 36.25 3.78125 
Q 33.796875 1.609375 31.609375 0.4375 
Q 29.4375 -0.734375 27.3125 -1.09375 
Q 25.203125 -1.46875 22.703125 -1.46875 
Q 18.953125 -1.46875 15.546875 0.140625 
Q 12.15625 1.765625 9.5625 4.71875 
Q 6.984375 7.671875 5.4375 11.84375 
Q 3.90625 16.015625 3.90625 21.1875 
Q 3.90625 24.46875 4.640625 27.640625 
Q 5.375 30.8125 6.765625 33.640625 
Q 8.15625 36.46875 10.15625 38.859375 
Q 12.15625 41.265625 14.703125 43.015625 
Q 15.765625 43.75 17.109375 44.453125 
Q 18.453125 45.171875 19.921875 45.703125 
Q 21.390625 46.234375 22.828125 46.546875 
Q 24.265625 46.875 25.59375 46.875 
Q 28.765625 46.875 31.25 46 
Q 33.734375 45.125 35.59375 43.625 
Q 37.453125 42.140625 38.71875 40.15625 
Q 39.984375 38.1875 40.796875 35.984375 
Q 41.609375 33.796875 41.9375 31.515625 
Q 42.28125 29.25 42.28125 27.203125 
z
" id="GentiumBasic-65"/>
      <path d="M 37.59375 45.0625 
Q 38.03125 44.78125 38 43.359375 
Q 37.984375 41.9375 37.609375 40.078125 
Q 37.25 38.234375 36.65625 36.28125 
Q 36.078125 34.328125 35.5 33.015625 
L 33.40625 33.015625 
Q 33.109375 34.96875 32.5625 36.328125 
Q 32.03125 37.703125 31.3125 38.5 
Q 30.609375 39.3125 29.75 39.671875 
Q 28.90625 40.046875 27.984375 40.046875 
Q 26.90625 40.046875 25.46875 39.140625 
Q 24.03125 38.234375 22.515625 36.296875 
Q 21 34.375 19.5 31.375 
Q 18.015625 28.375 16.84375 24.21875 
L 16.84375 5.078125 
Q 16.84375 4.34375 18.671875 3.5625 
Q 20.515625 2.78125 25.09375 2.09375 
L 25.09375 0 
L 2.6875 0 
L 2.6875 2.09375 
Q 5.90625 2.828125 7.703125 3.53125 
Q 9.515625 4.25 9.515625 5.078125 
L 9.515625 33.5 
Q 9.515625 35.109375 9.421875 36.203125 
Q 9.328125 37.3125 9.171875 37.984375 
Q 9.03125 38.671875 8.8125 39.0625 
Q 8.59375 39.453125 8.40625 39.703125 
Q 8.0625 40.046875 7.640625 40.265625 
Q 7.234375 40.484375 6.5625 40.625 
Q 5.90625 40.765625 4.96875 40.84375 
Q 4.046875 40.921875 2.6875 41.015625 
L 2.6875 42.96875 
Q 5.859375 43.796875 8.90625 44.65625 
Q 11.96875 45.515625 14.40625 46.875 
L 16.109375 45.171875 
L 16.75 34.078125 
Q 18.0625 36.765625 19.59375 39.109375 
Q 21.140625 41.453125 22.890625 43.1875 
Q 24.65625 44.921875 26.578125 45.890625 
Q 28.515625 46.875 30.609375 46.875 
Q 32.171875 46.875 33.984375 46.484375 
Q 35.796875 46.09375 37.59375 45.0625 
z
" id="GentiumBasic-72"/>
      <path id="GentiumBasic-20"/>
      <path d="M 38.8125 22.21875 
Q 38.8125 26.078125 37.546875 29.5625 
Q 36.28125 33.0625 34.28125 35.71875 
Q 32.28125 38.375 29.734375 39.9375 
Q 27.203125 41.5 24.703125 41.5 
Q 21 41.5 18.453125 40.078125 
Q 15.921875 38.671875 14.375 36.203125 
Q 12.84375 33.734375 12.15625 30.359375 
Q 11.46875 27 11.46875 23.09375 
Q 11.46875 19.234375 12.828125 15.734375 
Q 14.203125 12.25 16.28125 9.609375 
Q 18.359375 6.984375 20.84375 5.4375 
Q 23.34375 3.90625 25.59375 3.90625 
Q 29.046875 3.90625 31.53125 5.203125 
Q 34.03125 6.5 35.640625 8.890625 
Q 37.25 11.28125 38.03125 14.640625 
Q 38.8125 18.015625 38.8125 22.21875 
z
M 46.390625 23.6875 
Q 46.390625 20.40625 45.5625 17.28125 
Q 44.734375 14.15625 43.265625 11.375 
Q 41.796875 8.59375 39.75 6.21875 
Q 37.703125 3.859375 35.234375 2.140625 
Q 32.765625 0.4375 29.984375 -0.515625 
Q 27.203125 -1.46875 24.21875 -1.46875 
Q 19.578125 -1.46875 15.84375 0.28125 
Q 12.109375 2.046875 9.4375 5.125 
Q 6.78125 8.203125 5.34375 12.453125 
Q 3.90625 16.703125 3.90625 21.6875 
Q 3.90625 24.90625 4.703125 28.03125 
Q 5.515625 31.15625 6.953125 33.953125 
Q 8.40625 36.765625 10.421875 39.125 
Q 12.453125 41.5 14.921875 43.203125 
Q 17.390625 44.921875 20.234375 45.890625 
Q 23.09375 46.875 26.125 46.875 
Q 30.71875 46.875 34.453125 45.109375 
Q 38.1875 43.359375 40.84375 40.25 
Q 43.5 37.15625 44.9375 32.90625 
Q 46.390625 28.65625 46.390625 23.6875 
z
" id="GentiumBasic-6f"/>
      <path d="M 39.890625 71 
Q 39.890625 70.609375 39.1875 69.828125 
Q 38.484375 69.046875 37.5 68.21875 
Q 36.53125 67.390625 35.46875 66.65625 
Q 34.421875 65.921875 33.6875 65.578125 
Q 32.515625 66.609375 31.3125 67.359375 
Q 30.125 68.109375 29.03125 68.59375 
Q 27.9375 69.09375 26.984375 69.328125 
Q 26.03125 69.578125 25.390625 69.578125 
Q 24.125 69.578125 22.671875 68.71875 
Q 21.234375 67.875 19.984375 65.625 
Q 18.75 63.375 17.921875 59.515625 
Q 17.09375 55.671875 17.09375 49.609375 
L 17.09375 45.40625 
L 29.6875 45.40625 
L 31.109375 44 
Q 30.671875 43.3125 30 42.53125 
Q 29.34375 41.75 28.6875 41.0625 
Q 28.03125 40.375 27.390625 39.8125 
Q 26.765625 39.265625 26.3125 39.0625 
Q 25.203125 39.65625 23.09375 40.203125 
Q 21 40.765625 17.09375 40.765625 
L 17.09375 4.984375 
Q 17.09375 4.6875 17.59375 4.390625 
Q 18.109375 4.109375 19.328125 3.78125 
Q 20.5625 3.46875 22.484375 3.046875 
Q 24.421875 2.640625 27.296875 2.09375 
L 27.296875 0 
L 2.9375 0 
L 2.9375 2.09375 
Q 6.296875 2.6875 8.03125 3.53125 
Q 9.765625 4.390625 9.765625 4.984375 
L 9.765625 40.765625 
L 3.21875 40.765625 
L 2.203125 42.140625 
L 6 45.40625 
L 9.765625 45.40625 
L 9.765625 46.921875 
Q 9.765625 52.6875 10.546875 56.609375 
Q 11.328125 60.546875 12.671875 63.25 
Q 14.015625 65.96875 15.765625 67.796875 
Q 17.53125 69.625 19.484375 71.1875 
Q 20.796875 72.265625 22.359375 73.09375 
Q 23.921875 73.921875 25.453125 74.5 
Q 27 75.09375 28.390625 75.390625 
Q 29.78125 75.6875 30.71875 75.6875 
Q 32.234375 75.6875 33.84375 75.09375 
Q 35.453125 74.515625 36.796875 73.75 
Q 38.140625 73 39.015625 72.21875 
Q 39.890625 71.4375 39.890625 71 
z
" id="GentiumBasic-66"/>
      <path d="M 41.015625 9.28125 
Q 37.84375 5.515625 35.421875 3.390625 
Q 33.015625 1.265625 30.953125 0.171875 
Q 28.90625 -0.921875 26.953125 -1.1875 
Q 25 -1.46875 22.703125 -1.46875 
Q 19.140625 -1.46875 15.75 0.109375 
Q 12.359375 1.703125 9.71875 4.6875 
Q 7.078125 7.671875 5.484375 11.96875 
Q 3.90625 16.265625 3.90625 21.6875 
Q 3.90625 26.953125 5.828125 31.546875 
Q 7.765625 36.140625 11.109375 39.53125 
Q 14.453125 42.921875 18.984375 44.890625 
Q 23.53125 46.875 28.8125 46.875 
Q 30.421875 46.875 32.109375 46.609375 
Q 33.796875 46.34375 35.328125 45.828125 
Q 36.859375 45.3125 38.15625 44.59375 
Q 39.453125 43.890625 40.28125 43.015625 
Q 40.375 42.4375 40.125 41.359375 
Q 39.890625 40.28125 39.453125 39.078125 
Q 39.015625 37.890625 38.46875 36.78125 
Q 37.9375 35.6875 37.5 35.015625 
L 35.6875 35.5 
Q 35.296875 36.375 34.421875 37.390625 
Q 33.546875 38.421875 32.15625 39.34375 
Q 30.765625 40.28125 28.828125 40.890625 
Q 26.90625 41.5 24.421875 41.5 
Q 21.828125 41.5 19.453125 40.34375 
Q 17.09375 39.203125 15.25 36.90625 
Q 13.421875 34.625 12.328125 31.203125 
Q 11.234375 27.78125 11.234375 23.1875 
Q 11.234375 19.046875 12.46875 15.640625 
Q 13.71875 12.25 15.796875 9.859375 
Q 17.875 7.46875 20.578125 6.171875 
Q 23.296875 4.890625 26.21875 4.890625 
Q 27.59375 4.890625 28.765625 5 
Q 29.9375 5.125 31.328125 5.75 
Q 32.71875 6.390625 34.546875 7.65625 
Q 36.375 8.9375 39.109375 11.28125 
z
" id="GentiumBasic-63"/>
      <path d="M 34.1875 13.8125 
Q 34.1875 10.359375 33.203125 7.890625 
Q 32.234375 5.421875 30.671875 3.703125 
Q 29.109375 2 27.203125 0.96875 
Q 25.296875 -0.046875 23.4375 -0.578125 
Q 21.578125 -1.125 19.9375 -1.296875 
Q 18.3125 -1.46875 17.390625 -1.46875 
Q 15.046875 -1.46875 11.75 -0.578125 
Q 8.453125 0.296875 5.171875 2.09375 
Q 4.828125 2.25 4.703125 3.6875 
Q 4.59375 5.125 4.65625 7 
Q 4.734375 8.890625 4.953125 10.796875 
Q 5.171875 12.703125 5.515625 13.8125 
L 7.625 13.28125 
Q 7.71875 11.234375 8.6875 9.421875 
Q 9.671875 7.625 11.296875 6.296875 
Q 12.9375 4.984375 15.109375 4.203125 
Q 17.28125 3.421875 19.828125 3.421875 
Q 21.578125 3.421875 23.046875 3.984375 
Q 24.515625 4.546875 25.578125 5.546875 
Q 26.65625 6.546875 27.234375 7.953125 
Q 27.828125 9.375 27.828125 11.078125 
Q 27.828125 13.03125 26.78125 14.546875 
Q 25.734375 16.0625 24.015625 17.3125 
Q 22.3125 18.5625 20.140625 19.65625 
Q 17.96875 20.75 15.71875 21.921875 
Q 13.671875 22.953125 11.765625 24.125 
Q 9.859375 25.296875 8.375 26.75 
Q 6.890625 28.21875 5.984375 30.03125 
Q 5.078125 31.84375 5.078125 34.1875 
Q 5.078125 37.203125 6.296875 39.5625 
Q 7.515625 41.9375 9.546875 43.546875 
Q 11.578125 45.171875 14.1875 46.015625 
Q 16.796875 46.875 19.578125 46.875 
Q 21.09375 46.875 22.921875 46.609375 
Q 24.75 46.34375 26.53125 45.84375 
Q 28.328125 45.359375 29.890625 44.671875 
Q 31.453125 44 32.421875 43.109375 
Q 32.71875 42.828125 32.5 41.796875 
Q 32.28125 40.765625 31.8125 39.546875 
Q 31.34375 38.328125 30.8125 37.25 
Q 30.28125 36.1875 29.984375 35.796875 
L 28.078125 36.1875 
Q 25.734375 39.703125 23.21875 41.09375 
Q 20.703125 42.484375 18.3125 42.484375 
Q 16.703125 42.484375 15.421875 41.9375 
Q 14.15625 41.40625 13.25 40.546875 
Q 12.359375 39.703125 11.890625 38.671875 
Q 11.421875 37.640625 11.421875 36.625 
Q 11.421875 35.0625 12.34375 33.8125 
Q 13.28125 32.5625 14.796875 31.46875 
Q 16.3125 30.375 18.234375 29.375 
Q 20.171875 28.375 22.21875 27.296875 
Q 24.3125 26.21875 26.453125 25 
Q 28.609375 23.78125 30.3125 22.1875 
Q 32.03125 20.609375 33.109375 18.578125 
Q 34.1875 16.546875 34.1875 13.8125 
z
" id="GentiumBasic-73"/>
     </defs>
     <g transform="translate(223.839687 314.4775)scale(0.12 -0.12)">
      <use xlink:href="#GentiumBasic-4e"/>
      <use x="64.892578" xlink:href="#GentiumBasic-75"/>
      <use x="117.871094" xlink:href="#GentiumBasic-6d"/>
      <use x="198.193359" xlink:href="#GentiumBasic-62"/>
      <use x="248.974609" xlink:href="#GentiumBasic-65"/>
      <use x="295.166016" xlink:href="#GentiumBasic-72"/>
      <use x="334.765625" xlink:href="#GentiumBasic-20"/>
      <use x="356.787109" xlink:href="#GentiumBasic-6f"/>
      <use x="407.080078" xlink:href="#GentiumBasic-66"/>
      <use x="438.183594" xlink:href="#GentiumBasic-20"/>
      <use x="460.205078" xlink:href="#GentiumBasic-63"/>
      <use x="503.90625" xlink:href="#GentiumBasic-6f"/>
      <use x="554.199219" xlink:href="#GentiumBasic-72"/>
      <use x="593.798828" xlink:href="#GentiumBasic-65"/>
      <use x="639.990234" xlink:href="#GentiumBasic-73"/>
     </g>
    </g>
   </g>
   <g id="matplotlib.axis_2">
    <g id="ytick_1">
     <g id="line2d_7">
      <defs>
       <path d="M 0 0 
L -3.5 0 
" id="me0a245e7ca" style="stroke:#000000;stroke-width:0.8;"/>
      </defs>
      <g>
       <use style="stroke:#000000;stroke-width:0.8;" x="41.35625" xlink:href="#me0a245e7ca" y="262.478824"/>
      </g>
     </g>
     <g id="text_8">
      <!-- 10 -->
      <defs>
       <path d="M 35.203125 27.59375 
Q 35.203125 34.28125 34.15625 39.359375 
Q 33.109375 44.4375 31.34375 47.828125 
Q 29.59375 51.21875 27.296875 52.953125 
Q 25 54.6875 22.515625 54.6875 
Q 20.015625 54.6875 18.015625 53.34375 
Q 16.015625 52 14.625 49.1875 
Q 13.234375 46.390625 12.46875 41.984375 
Q 11.71875 37.59375 11.71875 31.5 
Q 11.71875 24.8125 12.6875 19.671875 
Q 13.671875 14.546875 15.359375 11.109375 
Q 17.046875 7.671875 19.359375 5.90625 
Q 21.6875 4.15625 24.421875 4.15625 
Q 26.953125 4.15625 28.953125 5.5 
Q 30.953125 6.84375 32.34375 9.6875 
Q 33.734375 12.546875 34.46875 16.96875 
Q 35.203125 21.390625 35.203125 27.59375 
z
M 43.21875 29.390625 
Q 43.21875 23.09375 41.71875 17.46875 
Q 40.234375 11.859375 37.515625 7.65625 
Q 34.8125 3.46875 30.984375 1 
Q 27.15625 -1.46875 22.515625 -1.46875 
Q 17.875 -1.46875 14.359375 1 
Q 10.84375 3.46875 8.46875 7.65625 
Q 6.109375 11.859375 4.90625 17.46875 
Q 3.71875 23.09375 3.71875 29.390625 
Q 3.71875 35.6875 5.21875 41.296875 
Q 6.734375 46.921875 9.4375 51.140625 
Q 12.15625 55.375 15.96875 57.828125 
Q 19.78125 60.296875 24.421875 60.296875 
Q 29.046875 60.296875 32.5625 57.859375 
Q 36.078125 55.421875 38.453125 51.21875 
Q 40.828125 47.015625 42.015625 41.375 
Q 43.21875 35.75 43.21875 29.390625 
z
" id="GentiumBasic-30"/>
      </defs>
      <g transform="translate(23.095 267.020074)scale(0.12 -0.12)">
       <use xlink:href="#GentiumBasic-31"/>
       <use x="46.923828" xlink:href="#GentiumBasic-30"/>
      </g>
     </g>
    </g>
    <g id="ytick_2">
     <g id="line2d_8">
      <g>
       <use style="stroke:#000000;stroke-width:0.8;" x="41.35625" xlink:href="#me0a245e7ca" y="225.812118"/>
      </g>
     </g>
     <g id="text_9">
      <!-- 20 -->
      <g transform="translate(23.095 230.353368)scale(0.12 -0.12)">
       <use xlink:href="#GentiumBasic-32"/>
       <use x="46.923828" xlink:href="#GentiumBasic-30"/>
      </g>
     </g>
    </g>
    <g id="ytick_3">
     <g id="line2d_9">
      <g>
       <use style="stroke:#000000;stroke-width:0.8;" x="41.35625" xlink:href="#me0a245e7ca" y="189.145413"/>
      </g>
     </g>
     <g id="text_10">
      <!-- 30 -->
      <g transform="translate(23.095 193.686663)scale(0.12 -0.12)">
       <use xlink:href="#GentiumBasic-33"/>
       <use x="46.923828" xlink:href="#GentiumBasic-30"/>
      </g>
     </g>
    </g>
    <g id="ytick_4">
     <g id="line2d_10">
      <g>
       <use style="stroke:#000000;stroke-width:0.8;" x="41.35625" xlink:href="#me0a245e7ca" y="152.478707"/>
      </g>
     </g>
     <g id="text_11">
      <!-- 40 -->
      <g transform="translate(23.095 157.019957)scale(0.12 -0.12)">
       <use xlink:href="#GentiumBasic-34"/>
       <use x="46.923828" xlink:href="#GentiumBasic-30"/>
      </g>
     </g>
    </g>
    <g id="ytick_5">
     <g id="line2d_11">
      <g>
       <use style="stroke:#000000;stroke-width:0.8;" x="41.35625" xlink:href="#me0a245e7ca" y="115.812001"/>
      </g>
     </g>
     <g id="text_12">
      <!-- 50 -->
      <g transform="translate(23.095 120.353251)scale(0.12 -0.12)">
       <use xlink:href="#GentiumBasic-35"/>
       <use x="46.923828" xlink:href="#GentiumBasic-30"/>
      </g>
     </g>
    </g>
    <g id="ytick_6">
     <g id="line2d_12">
      <g>
       <use style="stroke:#000000;stroke-width:0.8;" x="41.35625" xlink:href="#me0a245e7ca" y="79.145296"/>
      </g>
     </g>
     <g id="text_13">
      <!-- 60 -->
      <g transform="translate(23.095 83.686546)scale(0.12 -0.12)">
       <use xlink:href="#GentiumBasic-36"/>
       <use x="46.923828" xlink:href="#GentiumBasic-30"/>
      </g>
     </g>
    </g>
    <g id="ytick_7">
     <g id="line2d_13">
      <g>
       <use style="stroke:#000000;stroke-width:0.8;" x="41.35625" xlink:href="#me0a245e7ca" y="42.47859"/>
      </g>
     </g>
     <g id="text_14">
      <!-- 70 -->
      <defs>
       <path d="M 43.21875 56.984375 
Q 40.96875 51.703125 38.671875 46.328125 
Q 36.375 40.96875 34.203125 35.734375 
Q 32.03125 30.515625 30.03125 25.578125 
Q 28.03125 20.65625 26.34375 16.3125 
Q 24.65625 11.96875 23.28125 8.34375 
Q 21.921875 4.734375 21.09375 2.15625 
Q 19.390625 0.921875 17.5 0.046875 
Q 15.625 -0.828125 13.1875 -1.46875 
L 11.1875 0.140625 
Q 15.4375 7.625 18.796875 14.40625 
Q 22.171875 21.1875 25.046875 27.5625 
Q 27.9375 33.9375 30.515625 40.078125 
Q 33.109375 46.234375 35.796875 52.484375 
L 13.625 52.484375 
Q 12.890625 52.484375 12.203125 52.4375 
Q 11.53125 52.390625 10.796875 51.78125 
Q 10.0625 51.171875 9.203125 49.703125 
Q 8.34375 48.25 7.328125 45.40625 
L 5.078125 46.296875 
Q 5.21875 47.40625 5.46875 49.109375 
Q 5.71875 50.828125 6 52.609375 
Q 6.296875 54.390625 6.59375 56.078125 
Q 6.890625 57.765625 7.171875 58.84375 
L 41.609375 58.84375 
z
" id="GentiumBasic-37"/>
      </defs>
      <g transform="translate(23.095 47.01984)scale(0.12 -0.12)">
       <use xlink:href="#GentiumBasic-37"/>
       <use x="46.923828" xlink:href="#GentiumBasic-30"/>
      </g>
     </g>
    </g>
    <g id="text_15">
     <!-- Mpps -->
     <defs>
      <path d="M 75.6875 59.421875 
Q 74.265625 59.421875 72.53125 58.953125 
Q 70.796875 58.5 69.09375 57.671875 
L 69.578125 5.078125 
Q 69.578125 4.5 71.359375 3.640625 
Q 73.140625 2.78125 76.65625 2.09375 
L 76.65625 0 
L 54.4375 0 
L 54.4375 2.09375 
Q 57.765625 2.78125 59.890625 3.578125 
Q 62.015625 4.390625 62.015625 5.078125 
L 61.578125 50.78125 
L 40.1875 0 
L 37.796875 0 
L 16.0625 50.4375 
L 15.625 5.078125 
Q 15.625 4.5 17.40625 3.640625 
Q 19.1875 2.78125 22.703125 2.09375 
L 22.703125 0 
L 2.9375 0 
L 2.9375 2.09375 
Q 6.296875 2.78125 8.15625 3.578125 
Q 10.015625 4.390625 10.015625 5.078125 
L 10.5 57.46875 
Q 8.640625 58.546875 6.765625 58.984375 
Q 4.890625 59.421875 3.421875 59.421875 
L 3.421875 61.53125 
L 17.390625 61.53125 
Q 17.875 61.53125 18.21875 61.375 
Q 18.5625 61.234375 18.875 60.796875 
Q 19.1875 60.359375 19.546875 59.546875 
Q 19.921875 58.734375 20.515625 57.421875 
L 39.9375 13.375 
L 58.59375 57.421875 
Q 59.234375 58.890625 59.625 59.71875 
Q 60.015625 60.546875 60.328125 60.9375 
Q 60.640625 61.328125 60.953125 61.421875 
Q 61.28125 61.53125 61.71875 61.53125 
L 75.6875 61.53125 
z
" id="GentiumBasic-4d"/>
      <path d="M 42.484375 20.796875 
Q 42.484375 25.046875 41.484375 28.703125 
Q 40.484375 32.375 38.8125 35.0625 
Q 37.15625 37.75 34.953125 39.25 
Q 32.765625 40.765625 30.421875 40.765625 
Q 29.546875 40.765625 28.125 40.234375 
Q 26.703125 39.703125 24.890625 38.421875 
Q 23.09375 37.15625 21.046875 35.03125 
Q 19 32.90625 16.84375 29.78125 
L 16.84375 10.40625 
Q 19.046875 8.734375 20.921875 7.65625 
Q 22.796875 6.59375 24.4375 5.984375 
Q 26.078125 5.375 27.53125 5.125 
Q 29 4.890625 30.328125 4.890625 
Q 32.953125 4.890625 35.171875 5.90625 
Q 37.40625 6.9375 39.015625 8.9375 
Q 40.625 10.9375 41.546875 13.90625 
Q 42.484375 16.890625 42.484375 20.796875 
z
M 49.078125 24.03125 
Q 49.078125 21.1875 48.34375 18.203125 
Q 47.609375 15.234375 46.328125 12.40625 
Q 45.0625 9.578125 43.296875 7.03125 
Q 41.546875 4.5 39.46875 2.609375 
Q 37.40625 0.734375 35.109375 -0.359375 
Q 32.8125 -1.46875 30.421875 -1.46875 
Q 27.546875 -1.46875 23.921875 0.140625 
Q 20.3125 1.765625 16.84375 4.78125 
L 16.84375 -18.3125 
Q 16.84375 -19.09375 18.671875 -19.875 
Q 20.515625 -20.65625 25.09375 -21.34375 
L 25.09375 -23.4375 
L 2.6875 -23.4375 
L 2.6875 -21.34375 
Q 5.90625 -20.5625 7.703125 -19.84375 
Q 9.515625 -19.140625 9.515625 -18.3125 
L 9.515625 34.71875 
Q 9.515625 36.53125 9.3125 37.703125 
Q 9.125 38.875 8.421875 39.578125 
Q 7.71875 40.28125 6.375 40.59375 
Q 5.03125 40.921875 2.6875 41.015625 
L 2.6875 42.96875 
Q 4.34375 43.3125 5.859375 43.71875 
Q 7.375 44.140625 8.78125 44.59375 
Q 10.203125 45.0625 11.59375 45.625 
Q 12.984375 46.1875 14.40625 46.875 
L 16.109375 45.171875 
L 16.546875 35.5 
Q 19 38.421875 21.453125 40.5625 
Q 23.921875 42.71875 26.171875 44.109375 
Q 28.421875 45.515625 30.34375 46.1875 
Q 32.28125 46.875 33.6875 46.875 
Q 37.015625 46.875 39.84375 45.3125 
Q 42.671875 43.75 44.71875 40.796875 
Q 46.78125 37.84375 47.921875 33.59375 
Q 49.078125 29.34375 49.078125 24.03125 
z
" id="GentiumBasic-70"/>
     </defs>
     <g transform="translate(16.2825 160.112188)rotate(-90)scale(0.12 -0.12)">
      <use xlink:href="#GentiumBasic-4d"/>
      <use x="80.615234" xlink:href="#GentiumBasic-70"/>
      <use x="133.59375" xlink:href="#GentiumBasic-70"/>
      <use x="186.572266" xlink:href="#GentiumBasic-73"/>
     </g>
    </g>
   </g>
   <g id="line2d_14">
    <path clip-path="url(#p24c2bfd2dd)" d="M 61.647159 204.075105 
L 142.810795 115.812001 
L 223.974432 79.145296 
L 305.138068 42.47859 
L 386.301705 35.145249 
L 467.465341 23.054545 
" style="fill:none;stroke:#1f77b4;stroke-linecap:square;stroke-width:1.5;"/>
    <defs>
     <path d="M 0 3 
C 0.795609 3 1.55874 2.683901 2.12132 2.12132 
C 2.683901 1.55874 3 0.795609 3 0 
C 3 -0.795609 2.683901 -1.55874 2.12132 -2.12132 
C 1.55874 -2.683901 0.795609 -3 0 -3 
C -0.795609 -3 -1.55874 -2.683901 -2.12132 -2.12132 
C -2.683901 -1.55874 -3 -0.795609 -3 0 
C -3 0.795609 -2.683901 1.55874 -2.12132 2.12132 
C -1.55874 2.683901 -0.795609 3 0 3 
z
" id="m927a681246" style="stroke:#1f77b4;"/>
    </defs>
    <g clip-path="url(#p24c2bfd2dd)">
     <use style="fill:#1f77b4;stroke:#1f77b4;" x="61.647159" xlink:href="#m927a681246" y="204.075105"/>
     <use style="fill:#1f77b4;stroke:#1f77b4;" x="142.810795" xlink:href="#m927a681246" y="115.812001"/>
     <use style="fill:#1f77b4;stroke:#1f77b4;" x="223.974432" xlink:href="#m927a681246" y="79.145296"/>
     <use style="fill:#1f77b4;stroke:#1f77b4;" x="305.138068" xlink:href="#m927a681246" y="42.47859"/>
     <use style="fill:#1f77b4;stroke:#1f77b4;" x="386.301705" xlink:href="#m927a681246" y="35.145249"/>
     <use style="fill:#1f77b4;stroke:#1f77b4;" x="467.465341" xlink:href="#m927a681246" y="23.054545"/>
    </g>
   </g>
   <g id="line2d_15">
    <path clip-path="url(#p24c2bfd2dd)" d="M 61.647159 270.145455 
L 142.810795 244.274784 
L 223.974432 234.66327 
L 305.138068 225.196576 
L 386.301705 211.644371 
L 467.465341 195.097317 
" style="fill:none;stroke:#ff7f0e;stroke-linecap:square;stroke-width:1.5;"/>
    <defs>
     <path d="M 0 3 
C 0.795609 3 1.55874 2.683901 2.12132 2.12132 
C 2.683901 1.55874 3 0.795609 3 0 
C 3 -0.795609 2.683901 -1.55874 2.12132 -2.12132 
C 1.55874 -2.683901 0.795609 -3 0 -3 
C -0.795609 -3 -1.55874 -2.683901 -2.12132 -2.12132 
C -2.683901 -1.55874 -3 -0.795609 -3 0 
C -3 0.795609 -2.683901 1.55874 -2.12132 2.12132 
C -1.55874 2.683901 -0.795609 3 0 3 
z
" id="meb5c527d2b" style="stroke:#ff7f0e;"/>
    </defs>
    <g clip-path="url(#p24c2bfd2dd)">
     <use style="fill:#ff7f0e;stroke:#ff7f0e;" x="61.647159" xlink:href="#meb5c527d2b" y="270.145455"/>
     <use style="fill:#ff7f0e;stroke:#ff7f0e;" x="142.810795" xlink:href="#meb5c527d2b" y="244.274784"/>
     <use style="fill:#ff7f0e;stroke:#ff7f0e;" x="223.974432" xlink:href="#meb5c527d2b" y="234.66327"/>
     <use style="fill:#ff7f0e;stroke:#ff7f0e;" x="305.138068" xlink:href="#meb5c527d2b" y="225.196576"/>
     <use style="fill:#ff7f0e;stroke:#ff7f0e;" x="386.301705" xlink:href="#meb5c527d2b" y="211.644371"/>
     <use style="fill:#ff7f0e;stroke:#ff7f0e;" x="467.465341" xlink:href="#meb5c527d2b" y="195.097317"/>
    </g>
   </g>
   <g id="patch_3">
    <path d="M 41.35625 282.5 
L 41.35625 10.7 
" style="fill:none;stroke:#000000;stroke-linecap:square;stroke-linejoin:miter;stroke-width:0.8;"/>
   </g>
   <g id="patch_4">
    <path d="M 487.75625 282.5 
L 487.75625 10.7 
" style="fill:none;stroke:#000000;stroke-linecap:square;stroke-linejoin:miter;stroke-width:0.8;"/>
   </g>
   <g id="patch_5">
    <path d="M 41.35625 282.5 
L 487.75625 282.5 
" style="fill:none;stroke:#000000;stroke-linecap:square;stroke-linejoin:miter;stroke-width:0.8;"/>
   </g>
   <g id="patch_6">
    <path d="M 41.35625 10.7 
L 487.75625 10.7 
" style="fill:none;stroke:#000000;stroke-linecap:square;stroke-linejoin:miter;stroke-width:0.8;"/>
   </g>
   <g id="legend_1">
    <g id="patch_7">
     <path d="M 49.75625 56.09 
L 163.6625 56.09 
Q 166.0625 56.09 166.0625 53.69 
L 166.0625 19.1 
Q 166.0625 16.7 163.6625 16.7 
L 49.75625 16.7 
Q 47.35625 16.7 47.35625 19.1 
L 47.35625 53.69 
Q 47.35625 56.09 49.75625 56.09 
z
" style="fill:#ffffff;opacity:0.8;stroke:#cccccc;stroke-linejoin:miter;"/>
    </g>
    <g id="line2d_16">
     <path d="M 52.15625 26.3825 
L 76.15625 26.3825 
" style="fill:none;stroke:#1f77b4;stroke-linecap:square;stroke-width:1.5;"/>
    </g>
    <g id="line2d_17">
     <g>
      <use style="fill:#1f77b4;stroke:#1f77b4;" x="64.15625" xlink:href="#m927a681246" y="26.3825"/>
     </g>
    </g>
    <g id="text_16">
     <!-- XDP_DROP -->
     <defs>
      <path d="M 37.984375 0 
L 37.984375 2.09375 
Q 40.140625 2.296875 41.453125 2.609375 
Q 42.78125 2.9375 43.359375 3.390625 
Q 43.953125 3.859375 43.875 4.53125 
Q 43.796875 5.21875 43.109375 6.203125 
L 29.5 26.125 
L 17.1875 6.203125 
Q 15.828125 4.046875 17.40625 3.21875 
Q 19 2.390625 23.484375 2.09375 
L 23.484375 0 
L 1.515625 0 
L 1.515625 2.09375 
Q 4.6875 2.34375 6.9375 3.25 
Q 9.1875 4.15625 10.40625 6.203125 
L 25.875 31.453125 
L 9.625 55.328125 
Q 8.890625 56.390625 8.203125 57.078125 
Q 7.515625 57.765625 6.65625 58.203125 
Q 5.8125 58.640625 4.703125 58.90625 
Q 3.609375 59.1875 2 59.421875 
L 2 61.53125 
L 24.03125 61.53125 
L 24.03125 59.421875 
Q 19.875 59.03125 18.59375 58.21875 
Q 17.328125 57.421875 18.796875 55.328125 
L 30.859375 37.59375 
L 41.890625 55.328125 
Q 42.578125 56.453125 42.484375 57.15625 
Q 42.390625 57.859375 41.546875 58.328125 
Q 40.71875 58.796875 39.203125 59.03125 
Q 37.703125 59.28125 35.5 59.421875 
L 35.5 61.53125 
L 57.625 61.53125 
L 57.625 59.421875 
Q 55.859375 59.234375 54.46875 58.953125 
Q 53.078125 58.6875 52 58.21875 
Q 50.921875 57.765625 50.109375 57.046875 
Q 49.3125 56.34375 48.6875 55.328125 
L 34.46875 32.328125 
L 52.296875 6.203125 
Q 53.03125 5.171875 53.78125 4.46875 
Q 54.546875 3.765625 55.4375 3.296875 
Q 56.34375 2.828125 57.46875 2.5625 
Q 58.59375 2.296875 60.015625 2.09375 
L 60.015625 0 
z
" id="GentiumBasic-58"/>
      <path d="M 22.125 58.890625 
Q 19.671875 58.890625 17.328125 58.734375 
L 17.328125 7.515625 
Q 17.328125 6.453125 17.828125 5.765625 
Q 18.5 4.9375 20.453125 4.515625 
Q 22.40625 4.109375 26.21875 4.109375 
Q 29.59375 4.109375 33.171875 5.734375 
Q 36.765625 7.375 39.734375 10.71875 
Q 42.71875 14.0625 44.625 19.140625 
Q 46.53125 24.21875 46.53125 31.109375 
Q 46.53125 37.59375 44.921875 42.75 
Q 43.3125 47.90625 40.203125 51.484375 
Q 37.109375 55.078125 32.546875 56.984375 
Q 27.984375 58.890625 22.125 58.890625 
z
M 54.828125 33.015625 
Q 54.828125 26.90625 53.578125 22.09375 
Q 52.34375 17.28125 50.234375 13.59375 
Q 48.140625 9.90625 45.375 7.34375 
Q 42.625 4.78125 39.546875 3.140625 
Q 36.46875 1.515625 33.3125 0.75 
Q 30.171875 0 27.296875 0 
L 2.4375 0 
L 2.4375 2.09375 
Q 5.765625 2.78125 7.640625 3.578125 
Q 9.515625 4.390625 9.515625 5.078125 
L 9.515625 58.015625 
Q 7.5625 57.765625 5.796875 57.515625 
Q 4.046875 57.28125 2.4375 57.03125 
L 2 60.0625 
Q 4.15625 60.640625 6.953125 61.171875 
Q 9.765625 61.71875 12.890625 62.125 
Q 16.015625 62.546875 19.203125 62.765625 
Q 22.40625 62.984375 25.296875 62.984375 
Q 32.078125 62.984375 37.546875 60.953125 
Q 43.015625 58.9375 46.84375 55.078125 
Q 50.6875 51.21875 52.75 45.65625 
Q 54.828125 40.09375 54.828125 33.015625 
z
" id="GentiumBasic-44"/>
      <path d="M 2.4375 0 
L 2.4375 2.09375 
Q 5.765625 2.78125 7.640625 3.578125 
Q 9.515625 4.390625 9.515625 5.078125 
L 9.515625 58.109375 
Q 7.71875 57.859375 5.9375 57.59375 
Q 4.15625 57.328125 2.4375 57.03125 
L 2 60.0625 
Q 4.34375 60.6875 7.09375 61.21875 
Q 9.859375 61.765625 12.84375 62.15625 
Q 15.828125 62.546875 18.875 62.765625 
Q 21.921875 62.984375 24.90625 62.984375 
Q 30.171875 62.984375 34.421875 61.859375 
Q 38.671875 60.75 41.671875 58.546875 
Q 44.671875 56.34375 46.3125 53.125 
Q 47.953125 49.90625 47.953125 45.703125 
Q 47.953125 42.328125 47 39.546875 
Q 46.046875 36.765625 44.453125 34.59375 
Q 42.875 32.421875 40.8125 30.828125 
Q 38.765625 29.25 36.546875 28.203125 
Q 34.328125 27.15625 32.109375 26.640625 
Q 29.890625 26.125 27.984375 26.125 
Q 23.390625 26.125 20.125 27.59375 
L 19 31.25 
Q 21.046875 30.328125 22.921875 30.046875 
Q 24.8125 29.78125 26.515625 29.78125 
Q 28.765625 29.78125 31.203125 30.65625 
Q 33.640625 31.546875 35.6875 33.296875 
Q 37.75 35.0625 39.0625 37.640625 
Q 40.375 40.234375 40.375 43.703125 
Q 40.375 47.703125 38.9375 50.578125 
Q 37.5 53.46875 35 55.296875 
Q 32.515625 57.125 29.1875 58 
Q 25.875 58.890625 22.125 58.890625 
Q 20.90625 58.890625 19.703125 58.859375 
Q 18.5 58.84375 17.328125 58.796875 
L 17.328125 5.078125 
Q 17.328125 4.78125 17.71875 4.4375 
Q 18.109375 4.109375 19.0625 3.71875 
Q 20.015625 3.328125 21.671875 2.9375 
Q 23.34375 2.546875 25.875 2.09375 
L 25.875 0 
z
" id="GentiumBasic-50"/>
      <path d="M 43.796875 -7.625 
Q 43.5625 -8.640625 43.171875 -9.859375 
Q 42.78125 -11.078125 42.390625 -12.015625 
L 4.203125 -12.015625 
L 2.984375 -10.6875 
Q 3.21875 -9.71875 3.625 -8.546875 
Q 4.046875 -7.375 4.5 -6.390625 
L 42.671875 -6.390625 
z
" id="GentiumBasic-5f"/>
      <path d="M 2.4375 0 
L 2.4375 2.09375 
Q 5.765625 2.78125 7.640625 3.578125 
Q 9.515625 4.390625 9.515625 5.078125 
L 9.515625 58.0625 
Q 7.8125 57.8125 6.03125 57.546875 
Q 4.25 57.28125 2.4375 57.03125 
L 2 60.0625 
Q 4.296875 60.640625 6.640625 61.15625 
Q 8.984375 61.671875 11.515625 62.078125 
Q 14.0625 62.5 16.859375 62.734375 
Q 19.671875 62.984375 22.90625 62.984375 
Q 28.5625 62.984375 32.765625 61.859375 
Q 36.96875 60.75 39.75 58.734375 
Q 42.53125 56.734375 43.890625 54.015625 
Q 45.265625 51.3125 45.265625 48.1875 
Q 45.265625 44.671875 44.265625 41.8125 
Q 43.265625 38.96875 41.421875 36.765625 
Q 39.59375 34.578125 37.046875 33.015625 
Q 34.515625 31.453125 31.5 30.515625 
L 46.296875 6.78125 
Q 47.015625 5.71875 47.875 5.078125 
Q 48.734375 4.4375 49.78125 4.125 
Q 50.828125 3.8125 52.125 3.78125 
Q 53.421875 3.765625 55.078125 3.90625 
L 55.609375 1.8125 
Q 52.390625 0.734375 49.484375 0.015625 
Q 46.578125 -0.6875 44.671875 -0.6875 
Q 43.265625 -0.6875 41.921875 0.09375 
Q 40.578125 0.875 39.890625 2 
L 25.09375 29.390625 
Q 24.46875 29.296875 23.828125 29.296875 
L 22.515625 29.296875 
Q 21.234375 29.296875 19.96875 29.421875 
Q 18.703125 29.546875 17.328125 29.828125 
L 17.328125 5.078125 
Q 17.328125 4.5 19.078125 3.640625 
Q 20.84375 2.78125 24.421875 2.09375 
L 24.421875 0 
z
M 21.09375 58.890625 
Q 19.234375 58.890625 17.328125 58.734375 
L 17.328125 33.734375 
Q 18.65625 33.5 19.625 33.453125 
Q 20.609375 33.40625 21.6875 33.40625 
Q 29.390625 33.40625 33.546875 36.796875 
Q 37.703125 40.1875 37.703125 46.6875 
Q 37.703125 49.359375 36.75 51.609375 
Q 35.796875 53.859375 33.765625 55.46875 
Q 31.734375 57.078125 28.578125 57.984375 
Q 25.4375 58.890625 21.09375 58.890625 
z
" id="GentiumBasic-52"/>
      <path d="M 48 30.71875 
Q 48 34.078125 47.390625 37.375 
Q 46.78125 40.671875 45.65625 43.625 
Q 44.53125 46.578125 42.890625 49.09375 
Q 41.265625 51.609375 39.203125 53.4375 
Q 37.15625 55.28125 34.71875 56.328125 
Q 32.28125 57.375 29.5 57.375 
Q 25.140625 57.375 21.703125 55.546875 
Q 18.265625 53.71875 15.890625 50.3125 
Q 13.53125 46.921875 12.25 42.078125 
Q 10.984375 37.25 10.984375 31.296875 
Q 10.984375 25.828125 12.46875 20.9375 
Q 13.96875 16.0625 16.484375 12.375 
Q 19 8.6875 22.359375 6.53125 
Q 25.734375 4.390625 29.5 4.390625 
Q 33.546875 4.390625 36.9375 6.078125 
Q 40.328125 7.765625 42.796875 11.078125 
Q 45.265625 14.40625 46.625 19.328125 
Q 48 24.265625 48 30.71875 
z
M 55.5625 31.59375 
Q 55.5625 24.953125 53.359375 18.96875 
Q 51.171875 12.984375 47.390625 8.4375 
Q 43.609375 3.90625 38.625 1.21875 
Q 33.640625 -1.46875 28.078125 -1.46875 
Q 22.21875 -1.46875 17.625 1.125 
Q 13.03125 3.71875 9.875 8.0625 
Q 6.734375 12.40625 5.078125 18.0625 
Q 3.421875 23.734375 3.421875 29.890625 
Q 3.421875 36.53125 5.5625 42.53125 
Q 7.71875 48.53125 11.421875 53.078125 
Q 15.140625 57.625 20.140625 60.296875 
Q 25.140625 62.984375 30.90625 62.984375 
Q 36.96875 62.984375 41.546875 60.328125 
Q 46.140625 57.671875 49.265625 53.265625 
Q 52.390625 48.875 53.96875 43.203125 
Q 55.5625 37.546875 55.5625 31.59375 
z
" id="GentiumBasic-4f"/>
     </defs>
     <g transform="translate(85.75625 30.5825)scale(0.12 -0.12)">
      <use xlink:href="#GentiumBasic-58"/>
      <use x="61.523438" xlink:href="#GentiumBasic-44"/>
      <use x="120.800781" xlink:href="#GentiumBasic-50"/>
      <use x="173.095703" xlink:href="#GentiumBasic-5f"/>
      <use x="220.019531" xlink:href="#GentiumBasic-44"/>
      <use x="279.296875" xlink:href="#GentiumBasic-52"/>
      <use x="335.400391" xlink:href="#GentiumBasic-4f"/>
      <use x="395.410156" xlink:href="#GentiumBasic-50"/>
     </g>
    </g>
    <g id="line2d_18">
     <path d="M 52.15625 44.2775 
L 76.15625 44.2775 
" style="fill:none;stroke:#ff7f0e;stroke-linecap:square;stroke-width:1.5;"/>
    </g>
    <g id="line2d_19">
     <g>
      <use style="fill:#ff7f0e;stroke:#ff7f0e;" x="64.15625" xlink:href="#meb5c527d2b" y="44.2775"/>
     </g>
    </g>
    <g id="text_17">
     <!-- XDP_REDIRECT -->
     <defs>
      <path d="M 46.578125 11.921875 
Q 46.1875 7.71875 45.578125 4.5625 
Q 44.96875 1.421875 44.578125 0 
L 2.4375 0 
L 2.4375 2.09375 
Q 5.765625 2.78125 7.640625 3.578125 
Q 9.515625 4.390625 9.515625 5.078125 
L 9.515625 56.390625 
Q 9.515625 56.984375 7.734375 57.859375 
Q 5.953125 58.734375 2.4375 59.421875 
L 2.4375 61.53125 
L 41.796875 61.53125 
L 43.40625 60.296875 
Q 43.3125 59.03125 43.109375 57.515625 
Q 42.921875 56 42.625 54.484375 
Q 42.328125 52.984375 42.015625 51.609375 
Q 41.703125 50.25 41.40625 49.3125 
L 39.203125 49.3125 
Q 39.109375 51.5625 38.796875 53.078125 
Q 38.484375 54.59375 37.984375 55.484375 
Q 37.5 56.390625 36.78125 56.75 
Q 36.078125 57.125 35.203125 57.125 
L 17.328125 57.125 
L 17.328125 35.890625 
L 37.109375 35.890625 
L 38.375 34.515625 
Q 37.984375 33.84375 37.421875 33.0625 
Q 36.859375 32.28125 36.25 31.515625 
Q 35.640625 30.765625 35.03125 30.125 
Q 34.421875 29.5 33.890625 29.109375 
Q 33.15625 29.828125 32.296875 30.3125 
Q 31.453125 30.8125 30.34375 31.15625 
Q 29.25 31.5 27.75 31.640625 
Q 26.265625 31.78125 24.21875 31.78125 
L 17.328125 31.78125 
L 17.328125 7.515625 
Q 17.328125 6.78125 17.671875 6.21875 
Q 18.015625 5.671875 19.09375 5.25 
Q 20.171875 4.828125 22.125 4.609375 
Q 24.078125 4.390625 27.296875 4.390625 
L 33.59375 4.390625 
Q 35.84375 4.390625 37.421875 4.640625 
Q 39.015625 4.890625 40.234375 5.734375 
Q 41.453125 6.59375 42.453125 8.25 
Q 43.453125 9.90625 44.484375 12.796875 
z
" id="GentiumBasic-45"/>
      <path d="M 3.421875 0 
L 3.421875 2.09375 
Q 6.734375 2.78125 8.609375 3.578125 
Q 10.5 4.390625 10.5 5.078125 
L 10.5 56.390625 
Q 10.5 56.984375 8.71875 57.859375 
Q 6.9375 58.734375 3.421875 59.421875 
L 3.421875 61.53125 
L 25.390625 61.53125 
L 25.390625 59.421875 
Q 22.078125 58.734375 20.1875 57.90625 
Q 18.3125 57.078125 18.3125 56.390625 
L 18.3125 5.078125 
Q 18.3125 4.5 20.09375 3.640625 
Q 21.875 2.78125 25.390625 2.09375 
L 25.390625 0 
z
" id="GentiumBasic-49"/>
      <path d="M 49.703125 10.296875 
Q 46.578125 6.984375 43.71875 4.703125 
Q 40.875 2.4375 38.203125 1.0625 
Q 35.546875 -0.296875 32.984375 -0.875 
Q 30.421875 -1.46875 27.875 -1.46875 
Q 23.34375 -1.46875 18.96875 0.578125 
Q 14.59375 2.640625 11.125 6.5 
Q 7.671875 10.359375 5.546875 15.9375 
Q 3.421875 21.53125 3.421875 28.609375 
Q 3.421875 36.421875 5.78125 42.765625 
Q 8.15625 49.125 12.203125 53.609375 
Q 16.265625 58.109375 21.625 60.546875 
Q 27 62.984375 33.015625 62.984375 
Q 38.28125 62.984375 42.25 61.5625 
Q 46.234375 60.15625 48.78125 58.109375 
Q 49.078125 57.859375 48.625 57.125 
Q 48.1875 56.390625 47.4375 55.46875 
Q 46.6875 54.546875 45.828125 53.609375 
Q 44.96875 52.6875 44.390625 52.09375 
L 42.671875 52.390625 
Q 40.1875 54.6875 36.765625 56.15625 
Q 33.34375 57.625 28.90625 57.625 
Q 27.25 57.625 25.265625 57 
Q 23.296875 56.390625 21.28125 55.078125 
Q 19.28125 53.765625 17.421875 51.640625 
Q 15.578125 49.515625 14.140625 46.484375 
Q 12.703125 43.453125 11.84375 39.46875 
Q 10.984375 35.5 10.984375 30.421875 
Q 10.984375 23.921875 12.859375 19.03125 
Q 14.75 14.15625 17.703125 10.90625 
Q 20.65625 7.671875 24.296875 6.03125 
Q 27.9375 4.390625 31.390625 4.390625 
Q 34.03125 4.390625 38.28125 6.203125 
Q 42.53125 8.015625 47.90625 12.5 
Q 48.140625 12.40625 48.40625 12.078125 
Q 48.6875 11.765625 48.921875 11.421875 
Q 49.171875 11.078125 49.359375 10.765625 
Q 49.5625 10.453125 49.703125 10.296875 
z
" id="GentiumBasic-43"/>
      <path d="M 14.984375 0 
L 14.984375 2.09375 
Q 17.234375 2.546875 18.765625 3.03125 
Q 20.3125 3.515625 21.234375 3.96875 
Q 22.171875 4.4375 22.578125 4.859375 
Q 23 5.28125 23 5.609375 
L 23 57.125 
L 8.40625 57.125 
Q 7.671875 57.125 7.0625 56.859375 
Q 6.453125 56.59375 5.828125 55.703125 
Q 5.21875 54.828125 4.4375 53.125 
Q 3.65625 51.421875 2.59375 48.578125 
L 0.484375 49.515625 
Q 0.734375 52.390625 1.140625 55.65625 
Q 1.5625 58.9375 2.09375 61.53125 
L 51.421875 61.53125 
L 52.875 60.296875 
Q 52.78125 57.8125 52.390625 54.859375 
Q 52 51.90625 51.421875 48.828125 
L 49.21875 48.828125 
Q 48.734375 51.078125 48.359375 52.65625 
Q 48 54.25 47.5 55.25 
Q 47.015625 56.25 46.359375 56.6875 
Q 45.703125 57.125 44.671875 57.125 
L 30.8125 57.125 
L 30.8125 5.609375 
Q 30.8125 4.984375 32.5625 4 
Q 34.328125 3.03125 38.8125 2.09375 
L 38.8125 0 
z
" id="GentiumBasic-54"/>
     </defs>
     <g transform="translate(85.75625 48.4775)scale(0.12 -0.12)">
      <use xlink:href="#GentiumBasic-58"/>
      <use x="61.523438" xlink:href="#GentiumBasic-44"/>
      <use x="120.800781" xlink:href="#GentiumBasic-50"/>
      <use x="173.095703" xlink:href="#GentiumBasic-5f"/>
      <use x="220.019531" xlink:href="#GentiumBasic-52"/>
      <use x="276.123047" xlink:href="#GentiumBasic-45"/>
      <use x="325.732422" xlink:href="#GentiumBasic-44"/>
      <use x="385.009766" xlink:href="#GentiumBasic-49"/>
      <use x="414.794922" xlink:href="#GentiumBasic-52"/>
      <use x="470.898438" xlink:href="#GentiumBasic-45"/>
      <use x="520.507812" xlink:href="#GentiumBasic-43"/>
      <use x="574.121094" xlink:href="#GentiumBasic-54"/>
     </g>
    </g>
   </g>
  </g>
 </g>
 <defs>
  <clipPath id="p24c2bfd2dd">
   <rect height="271.8" width="446.4" x="41.35625" y="10.7"/>
  </clipPath>
 </defs>
</svg>
