<?xml version="1.0" encoding="utf-8" standalone="no"?>
<!DOCTYPE svg PUBLIC "-//W3C//DTD SVG 1.1//EN"
  "http://www.w3.org/Graphics/SVG/1.1/DTD/svg11.dtd">
<!-- Created with matplotlib (http://matplotlib.org/) -->
<svg height="324.49pt" version="1.1" viewBox="0 0 498.45625 324.49" width="498.45625pt" xmlns="http://www.w3.org/2000/svg" xmlns:xlink="http://www.w3.org/1999/xlink">
 <defs>
  <style type="text/css">
*{stroke-linecap:butt;stroke-linejoin:round;}
  </style>
 </defs>
 <g id="figure_1">
  <g id="patch_1">
   <path d="M 0 324.49 
L 498.45625 324.49 
L 498.45625 0 
L 0 0 
z
" style="fill:#ffffff;"/>
  </g>
  <g id="axes_1">
   <g id="patch_2">
    <path d="M 41.35625 282.5 
L 487.75625 282.5 
L 487.75625 10.7 
L 41.35625 10.7 
z
" style="fill:#ffffff;"/>
   </g>
   <g id="matplotlib.axis_1">
    <g id="xtick_1">
     <g id="line2d_1">
      <defs>
       <path d="M 0 0 
L 0 3.5 
" id="mf3b0cdb39b" style="stroke:#000000;stroke-width:0.8;"/>
      </defs>
      <g>
       <use style="stroke:#000000;stroke-width:0.8;" x="61.647159" xlink:href="#mf3b0cdb39b" y="282.5"/>
      </g>
     </g>
     <g id="text_1">
      <!-- 0 -->
      <defs>
       <path d="M 35.203125 27.59375 
Q 35.203125 34.28125 34.15625 39.359375 
Q 33.109375 44.4375 31.34375 47.828125 
Q 29.59375 51.21875 27.296875 52.953125 
Q 25 54.6875 22.515625 54.6875 
Q 20.015625 54.6875 18.015625 53.34375 
Q 16.015625 52 14.625 49.1875 
Q 13.234375 46.390625 12.46875 41.984375 
Q 11.71875 37.59375 11.71875 31.5 
Q 11.71875 24.8125 12.6875 19.671875 
Q 13.671875 14.546875 15.359375 11.109375 
Q 17.046875 7.671875 19.359375 5.90625 
Q 21.6875 4.15625 24.421875 4.15625 
Q 26.953125 4.15625 28.953125 5.5 
Q 30.953125 6.84375 32.34375 9.6875 
Q 33.734375 12.546875 34.46875 16.96875 
Q 35.203125 21.390625 35.203125 27.59375 
z
M 43.21875 29.390625 
Q 43.21875 23.09375 41.71875 17.46875 
Q 40.234375 11.859375 37.515625 7.65625 
Q 34.8125 3.46875 30.984375 1 
Q 27.15625 -1.46875 22.515625 -1.46875 
Q 17.875 -1.46875 14.359375 1 
Q 10.84375 3.46875 8.46875 7.65625 
Q 6.109375 11.859375 4.90625 17.46875 
Q 3.71875 23.09375 3.71875 29.390625 
Q 3.71875 35.6875 5.21875 41.296875 
Q 6.734375 46.921875 9.4375 51.140625 
Q 12.15625 55.375 15.96875 57.828125 
Q 19.78125 60.296875 24.421875 60.296875 
Q 29.046875 60.296875 32.5625 57.859375 
Q 36.078125 55.421875 38.453125 51.21875 
Q 40.828125 47.015625 42.015625 41.375 
Q 43.21875 35.75 43.21875 29.390625 
z
" id="GentiumBasic-30"/>
      </defs>
      <g transform="translate(58.831847 298.5825)scale(0.12 -0.12)">
       <use xlink:href="#GentiumBasic-30"/>
      </g>
     </g>
    </g>
    <g id="xtick_2">
     <g id="line2d_2">
      <g>
       <use style="stroke:#000000;stroke-width:0.8;" x="142.584172" xlink:href="#mf3b0cdb39b" y="282.5"/>
      </g>
     </g>
     <g id="text_2">
      <!-- 5 -->
      <defs>
       <path d="M 40.828125 20.015625 
Q 40.828125 15.765625 39.53125 11.890625 
Q 38.234375 8.015625 35.765625 5.03125 
Q 33.296875 2.046875 29.6875 0.28125 
Q 26.078125 -1.46875 21.484375 -1.46875 
Q 16.9375 -1.46875 12.5 0.1875 
Q 8.0625 1.859375 3.8125 5.8125 
L 5.515625 9.078125 
Q 8.109375 7.28125 10.234375 6.171875 
Q 12.359375 5.078125 14.15625 4.46875 
Q 15.96875 3.859375 17.484375 3.640625 
Q 19 3.421875 20.40625 3.421875 
Q 23.578125 3.421875 25.953125 4.640625 
Q 28.328125 5.859375 29.890625 7.875 
Q 31.453125 9.90625 32.234375 12.515625 
Q 33.015625 15.140625 33.015625 17.921875 
Q 33.015625 21.234375 32.203125 23.96875 
Q 31.390625 26.703125 29.75 28.625 
Q 28.125 30.5625 25.609375 31.640625 
Q 23.09375 32.71875 19.671875 32.71875 
Q 18.65625 32.71875 17.328125 32.46875 
Q 16.015625 32.234375 14.578125 31.734375 
Q 13.140625 31.25 11.6875 30.515625 
Q 10.25 29.78125 8.984375 28.8125 
L 6.6875 30.421875 
Q 6.984375 32.171875 7.375 34.484375 
Q 7.765625 36.8125 8.171875 39.40625 
Q 8.59375 42 9 44.703125 
Q 9.421875 47.40625 9.765625 49.96875 
Q 10.109375 52.546875 10.34375 54.828125 
Q 10.59375 57.125 10.6875 58.84375 
L 31.984375 58.84375 
Q 33.40625 58.84375 34.46875 58.953125 
Q 35.546875 59.078125 36.328125 59.28125 
Q 37.203125 59.46875 37.890625 59.71875 
L 39.3125 58.296875 
Q 38.765625 57.515625 38.0625 56.65625 
Q 37.359375 55.8125 36.625 55.03125 
Q 35.890625 54.25 35.171875 53.59375 
Q 34.46875 52.9375 33.890625 52.484375 
L 14.984375 52.484375 
Q 14.890625 51.078125 14.640625 48.84375 
Q 14.40625 46.625 14.078125 44.3125 
Q 13.765625 42 13.421875 39.9375 
Q 13.09375 37.890625 12.890625 36.8125 
Q 14.84375 37.40625 17.484375 37.75 
Q 20.125 38.09375 22.609375 38.09375 
Q 27.046875 38.09375 30.4375 36.59375 
Q 33.84375 35.109375 36.125 32.609375 
Q 38.421875 30.125 39.625 26.84375 
Q 40.828125 23.578125 40.828125 20.015625 
z
" id="GentiumBasic-35"/>
      </defs>
      <g transform="translate(139.768859 298.5825)scale(0.12 -0.12)">
       <use xlink:href="#GentiumBasic-35"/>
      </g>
     </g>
    </g>
    <g id="xtick_3">
     <g id="line2d_3">
      <g>
       <use style="stroke:#000000;stroke-width:0.8;" x="223.521185" xlink:href="#mf3b0cdb39b" y="282.5"/>
      </g>
     </g>
     <g id="text_3">
      <!-- 10 -->
      <defs>
       <path d="M 8.296875 0 
L 8.296875 2.59375 
Q 12.109375 3.03125 14.640625 3.59375 
Q 17.1875 4.15625 18.703125 4.734375 
Q 20.21875 5.328125 20.84375 5.890625 
Q 21.484375 6.453125 21.484375 6.984375 
L 21.484375 45.90625 
Q 21.484375 47.859375 21.328125 48.921875 
Q 21.1875 50 20.609375 50.6875 
Q 20.3125 50.984375 19.484375 51.171875 
Q 18.65625 51.375 17.140625 51.3125 
Q 15.625 51.265625 13.328125 50.96875 
Q 11.03125 50.6875 7.8125 50 
L 6.78125 52.484375 
Q 8.84375 53.078125 11.640625 54.09375 
Q 14.453125 55.125 17.328125 56.3125 
Q 20.21875 57.515625 22.796875 58.703125 
Q 25.390625 59.90625 27 60.796875 
L 28.8125 59.078125 
L 28.8125 6.984375 
Q 28.8125 6.5 29.34375 5.9375 
Q 29.890625 5.375 31.25 4.78125 
Q 32.625 4.203125 34.984375 3.609375 
Q 37.359375 3.03125 41.015625 2.59375 
L 41.015625 0 
z
" id="GentiumBasic-31"/>
      </defs>
      <g transform="translate(217.89056 298.5825)scale(0.12 -0.12)">
       <use xlink:href="#GentiumBasic-31"/>
       <use x="46.923828" xlink:href="#GentiumBasic-30"/>
      </g>
     </g>
    </g>
    <g id="xtick_4">
     <g id="line2d_4">
      <g>
       <use style="stroke:#000000;stroke-width:0.8;" x="304.458197" xlink:href="#mf3b0cdb39b" y="282.5"/>
      </g>
     </g>
     <g id="text_4">
      <!-- 15 -->
      <g transform="translate(298.827572 298.5825)scale(0.12 -0.12)">
       <use xlink:href="#GentiumBasic-31"/>
       <use x="46.923828" xlink:href="#GentiumBasic-35"/>
      </g>
     </g>
    </g>
    <g id="xtick_5">
     <g id="line2d_5">
      <g>
       <use style="stroke:#000000;stroke-width:0.8;" x="385.39521" xlink:href="#mf3b0cdb39b" y="282.5"/>
      </g>
     </g>
     <g id="text_5">
      <!-- 20 -->
      <defs>
       <path d="M 40.09375 0 
L 6.203125 0 
L 4.78125 3.609375 
Q 10.59375 10.359375 14.90625 15.53125 
Q 19.234375 20.703125 22.3125 24.671875 
Q 25.390625 28.65625 27.390625 31.65625 
Q 29.390625 34.671875 30.5625 37.03125 
Q 31.734375 39.40625 32.171875 41.328125 
Q 32.625 43.265625 32.625 45.125 
Q 32.625 47.359375 32.078125 49.328125 
Q 31.546875 51.3125 30.375 52.78125 
Q 29.203125 54.25 27.3125 55.078125 
Q 25.4375 55.90625 22.796875 55.90625 
Q 20.796875 55.90625 19.109375 54.921875 
Q 17.4375 53.953125 16.234375 52.46875 
Q 15.046875 50.984375 14.359375 49.140625 
Q 13.671875 47.3125 13.671875 45.609375 
Q 12.84375 45.171875 12.1875 44.78125 
Q 11.53125 44.390625 10.84375 44.0625 
Q 10.15625 43.75 9.34375 43.53125 
Q 8.546875 43.3125 7.421875 43.21875 
L 6.109375 44.671875 
Q 6.109375 47.21875 7.8125 49.96875 
Q 9.515625 52.734375 12.34375 55.03125 
Q 15.1875 57.328125 18.765625 58.8125 
Q 22.359375 60.296875 26.125 60.296875 
Q 29.046875 60.296875 31.609375 59.46875 
Q 34.1875 58.640625 36.078125 56.953125 
Q 37.984375 55.28125 39.078125 52.65625 
Q 40.1875 50.046875 40.1875 46.484375 
Q 40.1875 44.28125 39.546875 42.078125 
Q 38.921875 39.890625 37.578125 37.328125 
Q 36.234375 34.765625 34.109375 31.734375 
Q 31.984375 28.71875 28.953125 24.921875 
Q 25.921875 21.140625 21.96875 16.453125 
Q 18.015625 11.765625 12.984375 5.90625 
L 33.40625 5.90625 
Q 34.234375 5.90625 34.890625 6.265625 
Q 35.546875 6.640625 36.0625 7.25 
Q 36.578125 7.859375 36.9375 8.640625 
Q 37.3125 9.421875 37.546875 10.25 
Q 38.140625 12.15625 38.375 14.59375 
L 40.828125 14.015625 
z
" id="GentiumBasic-32"/>
      </defs>
      <g transform="translate(379.764585 298.5825)scale(0.12 -0.12)">
       <use xlink:href="#GentiumBasic-32"/>
       <use x="46.923828" xlink:href="#GentiumBasic-30"/>
      </g>
     </g>
    </g>
    <g id="xtick_6">
     <g id="line2d_6">
      <g>
       <use style="stroke:#000000;stroke-width:0.8;" x="466.332223" xlink:href="#mf3b0cdb39b" y="282.5"/>
      </g>
     </g>
     <g id="text_6">
      <!-- 25 -->
      <g transform="translate(460.701598 298.5825)scale(0.12 -0.12)">
       <use xlink:href="#GentiumBasic-32"/>
       <use x="46.923828" xlink:href="#GentiumBasic-35"/>
      </g>
     </g>
    </g>
    <g id="text_7">
     <!-- Mpps -->
     <defs>
      <path d="M 75.6875 59.421875 
Q 74.265625 59.421875 72.53125 58.953125 
Q 70.796875 58.5 69.09375 57.671875 
L 69.578125 5.078125 
Q 69.578125 4.5 71.359375 3.640625 
Q 73.140625 2.78125 76.65625 2.09375 
L 76.65625 0 
L 54.4375 0 
L 54.4375 2.09375 
Q 57.765625 2.78125 59.890625 3.578125 
Q 62.015625 4.390625 62.015625 5.078125 
L 61.578125 50.78125 
L 40.1875 0 
L 37.796875 0 
L 16.0625 50.4375 
L 15.625 5.078125 
Q 15.625 4.5 17.40625 3.640625 
Q 19.1875 2.78125 22.703125 2.09375 
L 22.703125 0 
L 2.9375 0 
L 2.9375 2.09375 
Q 6.296875 2.78125 8.15625 3.578125 
Q 10.015625 4.390625 10.015625 5.078125 
L 10.5 57.46875 
Q 8.640625 58.546875 6.765625 58.984375 
Q 4.890625 59.421875 3.421875 59.421875 
L 3.421875 61.53125 
L 17.390625 61.53125 
Q 17.875 61.53125 18.21875 61.375 
Q 18.5625 61.234375 18.875 60.796875 
Q 19.1875 60.359375 19.546875 59.546875 
Q 19.921875 58.734375 20.515625 57.421875 
L 39.9375 13.375 
L 58.59375 57.421875 
Q 59.234375 58.890625 59.625 59.71875 
Q 60.015625 60.546875 60.328125 60.9375 
Q 60.640625 61.328125 60.953125 61.421875 
Q 61.28125 61.53125 61.71875 61.53125 
L 75.6875 61.53125 
z
" id="GentiumBasic-4d"/>
      <path d="M 42.484375 20.796875 
Q 42.484375 25.046875 41.484375 28.703125 
Q 40.484375 32.375 38.8125 35.0625 
Q 37.15625 37.75 34.953125 39.25 
Q 32.765625 40.765625 30.421875 40.765625 
Q 29.546875 40.765625 28.125 40.234375 
Q 26.703125 39.703125 24.890625 38.421875 
Q 23.09375 37.15625 21.046875 35.03125 
Q 19 32.90625 16.84375 29.78125 
L 16.84375 10.40625 
Q 19.046875 8.734375 20.921875 7.65625 
Q 22.796875 6.59375 24.4375 5.984375 
Q 26.078125 5.375 27.53125 5.125 
Q 29 4.890625 30.328125 4.890625 
Q 32.953125 4.890625 35.171875 5.90625 
Q 37.40625 6.9375 39.015625 8.9375 
Q 40.625 10.9375 41.546875 13.90625 
Q 42.484375 16.890625 42.484375 20.796875 
z
M 49.078125 24.03125 
Q 49.078125 21.1875 48.34375 18.203125 
Q 47.609375 15.234375 46.328125 12.40625 
Q 45.0625 9.578125 43.296875 7.03125 
Q 41.546875 4.5 39.46875 2.609375 
Q 37.40625 0.734375 35.109375 -0.359375 
Q 32.8125 -1.46875 30.421875 -1.46875 
Q 27.546875 -1.46875 23.921875 0.140625 
Q 20.3125 1.765625 16.84375 4.78125 
L 16.84375 -18.3125 
Q 16.84375 -19.09375 18.671875 -19.875 
Q 20.515625 -20.65625 25.09375 -21.34375 
L 25.09375 -23.4375 
L 2.6875 -23.4375 
L 2.6875 -21.34375 
Q 5.90625 -20.5625 7.703125 -19.84375 
Q 9.515625 -19.140625 9.515625 -18.3125 
L 9.515625 34.71875 
Q 9.515625 36.53125 9.3125 37.703125 
Q 9.125 38.875 8.421875 39.578125 
Q 7.71875 40.28125 6.375 40.59375 
Q 5.03125 40.921875 2.6875 41.015625 
L 2.6875 42.96875 
Q 4.34375 43.3125 5.859375 43.71875 
Q 7.375 44.140625 8.78125 44.59375 
Q 10.203125 45.0625 11.59375 45.625 
Q 12.984375 46.1875 14.40625 46.875 
L 16.109375 45.171875 
L 16.546875 35.5 
Q 19 38.421875 21.453125 40.5625 
Q 23.921875 42.71875 26.171875 44.109375 
Q 28.421875 45.515625 30.34375 46.1875 
Q 32.28125 46.875 33.6875 46.875 
Q 37.015625 46.875 39.84375 45.3125 
Q 42.671875 43.75 44.71875 40.796875 
Q 46.78125 37.84375 47.921875 33.59375 
Q 49.078125 29.34375 49.078125 24.03125 
z
" id="GentiumBasic-70"/>
      <path d="M 34.1875 13.8125 
Q 34.1875 10.359375 33.203125 7.890625 
Q 32.234375 5.421875 30.671875 3.703125 
Q 29.109375 2 27.203125 0.96875 
Q 25.296875 -0.046875 23.4375 -0.578125 
Q 21.578125 -1.125 19.9375 -1.296875 
Q 18.3125 -1.46875 17.390625 -1.46875 
Q 15.046875 -1.46875 11.75 -0.578125 
Q 8.453125 0.296875 5.171875 2.09375 
Q 4.828125 2.25 4.703125 3.6875 
Q 4.59375 5.125 4.65625 7 
Q 4.734375 8.890625 4.953125 10.796875 
Q 5.171875 12.703125 5.515625 13.8125 
L 7.625 13.28125 
Q 7.71875 11.234375 8.6875 9.421875 
Q 9.671875 7.625 11.296875 6.296875 
Q 12.9375 4.984375 15.109375 4.203125 
Q 17.28125 3.421875 19.828125 3.421875 
Q 21.578125 3.421875 23.046875 3.984375 
Q 24.515625 4.546875 25.578125 5.546875 
Q 26.65625 6.546875 27.234375 7.953125 
Q 27.828125 9.375 27.828125 11.078125 
Q 27.828125 13.03125 26.78125 14.546875 
Q 25.734375 16.0625 24.015625 17.3125 
Q 22.3125 18.5625 20.140625 19.65625 
Q 17.96875 20.75 15.71875 21.921875 
Q 13.671875 22.953125 11.765625 24.125 
Q 9.859375 25.296875 8.375 26.75 
Q 6.890625 28.21875 5.984375 30.03125 
Q 5.078125 31.84375 5.078125 34.1875 
Q 5.078125 37.203125 6.296875 39.5625 
Q 7.515625 41.9375 9.546875 43.546875 
Q 11.578125 45.171875 14.1875 46.015625 
Q 16.796875 46.875 19.578125 46.875 
Q 21.09375 46.875 22.921875 46.609375 
Q 24.75 46.34375 26.53125 45.84375 
Q 28.328125 45.359375 29.890625 44.671875 
Q 31.453125 44 32.421875 43.109375 
Q 32.71875 42.828125 32.5 41.796875 
Q 32.28125 40.765625 31.8125 39.546875 
Q 31.34375 38.328125 30.8125 37.25 
Q 30.28125 36.1875 29.984375 35.796875 
L 28.078125 36.1875 
Q 25.734375 39.703125 23.21875 41.09375 
Q 20.703125 42.484375 18.3125 42.484375 
Q 16.703125 42.484375 15.421875 41.9375 
Q 14.15625 41.40625 13.25 40.546875 
Q 12.359375 39.703125 11.890625 38.671875 
Q 11.421875 37.640625 11.421875 36.625 
Q 11.421875 35.0625 12.34375 33.8125 
Q 13.28125 32.5625 14.796875 31.46875 
Q 16.3125 30.375 18.234375 29.375 
Q 20.171875 28.375 22.21875 27.296875 
Q 24.3125 26.21875 26.453125 25 
Q 28.609375 23.78125 30.3125 22.1875 
Q 32.03125 20.609375 33.109375 18.578125 
Q 34.1875 16.546875 34.1875 13.8125 
z
" id="GentiumBasic-73"/>
     </defs>
     <g transform="translate(251.044062 314.4775)scale(0.12 -0.12)">
      <use xlink:href="#GentiumBasic-4d"/>
      <use x="80.615234" xlink:href="#GentiumBasic-70"/>
      <use x="133.59375" xlink:href="#GentiumBasic-70"/>
      <use x="186.572266" xlink:href="#GentiumBasic-73"/>
     </g>
    </g>
   </g>
   <g id="matplotlib.axis_2">
    <g id="ytick_1">
     <g id="line2d_7">
      <defs>
       <path d="M 0 0 
L -3.5 0 
" id="m23de9948ef" style="stroke:#000000;stroke-width:0.8;"/>
      </defs>
      <g>
       <use style="stroke:#000000;stroke-width:0.8;" x="41.35625" xlink:href="#m23de9948ef" y="270.145455"/>
      </g>
     </g>
     <g id="text_8">
      <!-- 0 -->
      <g transform="translate(28.725625 274.686705)scale(0.12 -0.12)">
       <use xlink:href="#GentiumBasic-30"/>
      </g>
     </g>
    </g>
    <g id="ytick_2">
     <g id="line2d_8">
      <g>
       <use style="stroke:#000000;stroke-width:0.8;" x="41.35625" xlink:href="#m23de9948ef" y="221.520827"/>
      </g>
     </g>
     <g id="text_9">
      <!-- 5 -->
      <g transform="translate(28.725625 226.062077)scale(0.12 -0.12)">
       <use xlink:href="#GentiumBasic-35"/>
      </g>
     </g>
    </g>
    <g id="ytick_3">
     <g id="line2d_9">
      <g>
       <use style="stroke:#000000;stroke-width:0.8;" x="41.35625" xlink:href="#m23de9948ef" y="172.896199"/>
      </g>
     </g>
     <g id="text_10">
      <!-- 10 -->
      <g transform="translate(23.095 177.437449)scale(0.12 -0.12)">
       <use xlink:href="#GentiumBasic-31"/>
       <use x="46.923828" xlink:href="#GentiumBasic-30"/>
      </g>
     </g>
    </g>
    <g id="ytick_4">
     <g id="line2d_10">
      <g>
       <use style="stroke:#000000;stroke-width:0.8;" x="41.35625" xlink:href="#m23de9948ef" y="124.271571"/>
      </g>
     </g>
     <g id="text_11">
      <!-- 15 -->
      <g transform="translate(23.095 128.812821)scale(0.12 -0.12)">
       <use xlink:href="#GentiumBasic-31"/>
       <use x="46.923828" xlink:href="#GentiumBasic-35"/>
      </g>
     </g>
    </g>
    <g id="ytick_5">
     <g id="line2d_11">
      <g>
       <use style="stroke:#000000;stroke-width:0.8;" x="41.35625" xlink:href="#m23de9948ef" y="75.646943"/>
      </g>
     </g>
     <g id="text_12">
      <!-- 20 -->
      <g transform="translate(23.095 80.188193)scale(0.12 -0.12)">
       <use xlink:href="#GentiumBasic-32"/>
       <use x="46.923828" xlink:href="#GentiumBasic-30"/>
      </g>
     </g>
    </g>
    <g id="ytick_6">
     <g id="line2d_12">
      <g>
       <use style="stroke:#000000;stroke-width:0.8;" x="41.35625" xlink:href="#m23de9948ef" y="27.022315"/>
      </g>
     </g>
     <g id="text_13">
      <!-- 25 -->
      <g transform="translate(23.095 31.563565)scale(0.12 -0.12)">
       <use xlink:href="#GentiumBasic-32"/>
       <use x="46.923828" xlink:href="#GentiumBasic-35"/>
      </g>
     </g>
    </g>
    <g id="text_14">
     <!-- TCP Ktrans/s -->
     <defs>
      <path d="M 14.984375 0 
L 14.984375 2.09375 
Q 17.234375 2.546875 18.765625 3.03125 
Q 20.3125 3.515625 21.234375 3.96875 
Q 22.171875 4.4375 22.578125 4.859375 
Q 23 5.28125 23 5.609375 
L 23 57.125 
L 8.40625 57.125 
Q 7.671875 57.125 7.0625 56.859375 
Q 6.453125 56.59375 5.828125 55.703125 
Q 5.21875 54.828125 4.4375 53.125 
Q 3.65625 51.421875 2.59375 48.578125 
L 0.484375 49.515625 
Q 0.734375 52.390625 1.140625 55.65625 
Q 1.5625 58.9375 2.09375 61.53125 
L 51.421875 61.53125 
L 52.875 60.296875 
Q 52.78125 57.8125 52.390625 54.859375 
Q 52 51.90625 51.421875 48.828125 
L 49.21875 48.828125 
Q 48.734375 51.078125 48.359375 52.65625 
Q 48 54.25 47.5 55.25 
Q 47.015625 56.25 46.359375 56.6875 
Q 45.703125 57.125 44.671875 57.125 
L 30.8125 57.125 
L 30.8125 5.609375 
Q 30.8125 4.984375 32.5625 4 
Q 34.328125 3.03125 38.8125 2.09375 
L 38.8125 0 
z
" id="GentiumBasic-54"/>
      <path d="M 49.703125 10.296875 
Q 46.578125 6.984375 43.71875 4.703125 
Q 40.875 2.4375 38.203125 1.0625 
Q 35.546875 -0.296875 32.984375 -0.875 
Q 30.421875 -1.46875 27.875 -1.46875 
Q 23.34375 -1.46875 18.96875 0.578125 
Q 14.59375 2.640625 11.125 6.5 
Q 7.671875 10.359375 5.546875 15.9375 
Q 3.421875 21.53125 3.421875 28.609375 
Q 3.421875 36.421875 5.78125 42.765625 
Q 8.15625 49.125 12.203125 53.609375 
Q 16.265625 58.109375 21.625 60.546875 
Q 27 62.984375 33.015625 62.984375 
Q 38.28125 62.984375 42.25 61.5625 
Q 46.234375 60.15625 48.78125 58.109375 
Q 49.078125 57.859375 48.625 57.125 
Q 48.1875 56.390625 47.4375 55.46875 
Q 46.6875 54.546875 45.828125 53.609375 
Q 44.96875 52.6875 44.390625 52.09375 
L 42.671875 52.390625 
Q 40.1875 54.6875 36.765625 56.15625 
Q 33.34375 57.625 28.90625 57.625 
Q 27.25 57.625 25.265625 57 
Q 23.296875 56.390625 21.28125 55.078125 
Q 19.28125 53.765625 17.421875 51.640625 
Q 15.578125 49.515625 14.140625 46.484375 
Q 12.703125 43.453125 11.84375 39.46875 
Q 10.984375 35.5 10.984375 30.421875 
Q 10.984375 23.921875 12.859375 19.03125 
Q 14.75 14.15625 17.703125 10.90625 
Q 20.65625 7.671875 24.296875 6.03125 
Q 27.9375 4.390625 31.390625 4.390625 
Q 34.03125 4.390625 38.28125 6.203125 
Q 42.53125 8.015625 47.90625 12.5 
Q 48.140625 12.40625 48.40625 12.078125 
Q 48.6875 11.765625 48.921875 11.421875 
Q 49.171875 11.078125 49.359375 10.765625 
Q 49.5625 10.453125 49.703125 10.296875 
z
" id="GentiumBasic-43"/>
      <path d="M 2.4375 0 
L 2.4375 2.09375 
Q 5.765625 2.78125 7.640625 3.578125 
Q 9.515625 4.390625 9.515625 5.078125 
L 9.515625 58.109375 
Q 7.71875 57.859375 5.9375 57.59375 
Q 4.15625 57.328125 2.4375 57.03125 
L 2 60.0625 
Q 4.34375 60.6875 7.09375 61.21875 
Q 9.859375 61.765625 12.84375 62.15625 
Q 15.828125 62.546875 18.875 62.765625 
Q 21.921875 62.984375 24.90625 62.984375 
Q 30.171875 62.984375 34.421875 61.859375 
Q 38.671875 60.75 41.671875 58.546875 
Q 44.671875 56.34375 46.3125 53.125 
Q 47.953125 49.90625 47.953125 45.703125 
Q 47.953125 42.328125 47 39.546875 
Q 46.046875 36.765625 44.453125 34.59375 
Q 42.875 32.421875 40.8125 30.828125 
Q 38.765625 29.25 36.546875 28.203125 
Q 34.328125 27.15625 32.109375 26.640625 
Q 29.890625 26.125 27.984375 26.125 
Q 23.390625 26.125 20.125 27.59375 
L 19 31.25 
Q 21.046875 30.328125 22.921875 30.046875 
Q 24.8125 29.78125 26.515625 29.78125 
Q 28.765625 29.78125 31.203125 30.65625 
Q 33.640625 31.546875 35.6875 33.296875 
Q 37.75 35.0625 39.0625 37.640625 
Q 40.375 40.234375 40.375 43.703125 
Q 40.375 47.703125 38.9375 50.578125 
Q 37.5 53.46875 35 55.296875 
Q 32.515625 57.125 29.1875 58 
Q 25.875 58.890625 22.125 58.890625 
Q 20.90625 58.890625 19.703125 58.859375 
Q 18.5 58.84375 17.328125 58.796875 
L 17.328125 5.078125 
Q 17.328125 4.78125 17.71875 4.4375 
Q 18.109375 4.109375 19.0625 3.71875 
Q 20.015625 3.328125 21.671875 2.9375 
Q 23.34375 2.546875 25.875 2.09375 
L 25.875 0 
z
" id="GentiumBasic-50"/>
      <path id="GentiumBasic-20"/>
      <path d="M 2.4375 0 
L 2.4375 2.09375 
Q 5.765625 2.78125 7.640625 3.578125 
Q 9.515625 4.390625 9.515625 5.078125 
L 9.515625 56.390625 
Q 9.515625 56.984375 7.734375 57.859375 
Q 5.953125 58.734375 2.4375 59.421875 
L 2.4375 61.53125 
L 24.421875 61.53125 
L 24.421875 59.421875 
Q 21.09375 58.734375 19.203125 57.90625 
Q 17.328125 57.078125 17.328125 56.390625 
L 17.328125 31.546875 
L 37.3125 55.078125 
Q 38.421875 56.390625 38.71875 57.171875 
Q 39.015625 57.953125 38.515625 58.390625 
Q 38.03125 58.84375 36.8125 59.0625 
Q 35.59375 59.28125 33.6875 59.421875 
L 33.6875 61.53125 
L 54.203125 61.53125 
L 54.203125 59.421875 
Q 52.640625 59.234375 51.421875 59.03125 
Q 50.203125 58.84375 49.21875 58.515625 
Q 48.25 58.203125 47.4375 57.71875 
Q 46.625 57.234375 45.90625 56.390625 
L 24.515625 32.765625 
L 48.09375 6.203125 
Q 48.96875 5.21875 49.96875 4.6875 
Q 50.984375 4.15625 52.125 3.9375 
Q 53.265625 3.71875 54.484375 3.734375 
Q 55.71875 3.765625 56.984375 3.90625 
L 57.328125 1.8125 
Q 54.4375 0.875 51.53125 0.09375 
Q 48.640625 -0.6875 46.296875 -0.6875 
Q 44.875 -0.6875 43.765625 -0.234375 
Q 42.671875 0.203125 41.703125 1.421875 
L 17.328125 31.203125 
L 17.328125 5.078125 
Q 17.328125 4.5 19.078125 3.640625 
Q 20.84375 2.78125 24.421875 2.09375 
L 24.421875 0 
z
" id="GentiumBasic-4b"/>
      <path d="M 33.015625 5.71875 
Q 30.609375 3.953125 28.265625 2.609375 
Q 25.921875 1.265625 23.796875 0.359375 
Q 21.6875 -0.53125 19.875 -1 
Q 18.0625 -1.46875 16.796875 -1.46875 
Q 15.09375 -1.46875 13.546875 -0.828125 
Q 12.015625 -0.203125 10.84375 1.234375 
Q 9.671875 2.6875 8.984375 5.03125 
Q 8.296875 7.375 8.296875 10.796875 
L 8.296875 40.765625 
L 2 40.765625 
L 0.984375 42.140625 
L 4.78125 45.40625 
L 8.296875 45.40625 
L 8.296875 57.421875 
L 14.109375 62.5 
L 15.625 61.28125 
L 15.625 45.40625 
L 31.59375 45.40625 
L 33.015625 44 
Q 32.5625 43.3125 31.90625 42.53125 
Q 31.25 41.75 30.5625 41.0625 
Q 29.890625 40.375 29.21875 39.8125 
Q 28.5625 39.265625 28.078125 39.0625 
Q 26.90625 39.65625 24.515625 40.203125 
Q 22.125 40.765625 18.171875 40.765625 
L 15.625 40.765625 
L 15.625 14.984375 
Q 15.625 12.0625 15.890625 10.109375 
Q 16.15625 8.15625 16.796875 7 
Q 17.4375 5.859375 18.4375 5.375 
Q 19.4375 4.890625 20.90625 4.890625 
Q 22.609375 4.890625 25.1875 5.5625 
Q 27.78125 6.25 31.59375 8.203125 
z
" id="GentiumBasic-74"/>
      <path d="M 37.59375 45.0625 
Q 38.03125 44.78125 38 43.359375 
Q 37.984375 41.9375 37.609375 40.078125 
Q 37.25 38.234375 36.65625 36.28125 
Q 36.078125 34.328125 35.5 33.015625 
L 33.40625 33.015625 
Q 33.109375 34.96875 32.5625 36.328125 
Q 32.03125 37.703125 31.3125 38.5 
Q 30.609375 39.3125 29.75 39.671875 
Q 28.90625 40.046875 27.984375 40.046875 
Q 26.90625 40.046875 25.46875 39.140625 
Q 24.03125 38.234375 22.515625 36.296875 
Q 21 34.375 19.5 31.375 
Q 18.015625 28.375 16.84375 24.21875 
L 16.84375 5.078125 
Q 16.84375 4.34375 18.671875 3.5625 
Q 20.515625 2.78125 25.09375 2.09375 
L 25.09375 0 
L 2.6875 0 
L 2.6875 2.09375 
Q 5.90625 2.828125 7.703125 3.53125 
Q 9.515625 4.25 9.515625 5.078125 
L 9.515625 33.5 
Q 9.515625 35.109375 9.421875 36.203125 
Q 9.328125 37.3125 9.171875 37.984375 
Q 9.03125 38.671875 8.8125 39.0625 
Q 8.59375 39.453125 8.40625 39.703125 
Q 8.0625 40.046875 7.640625 40.265625 
Q 7.234375 40.484375 6.5625 40.625 
Q 5.90625 40.765625 4.96875 40.84375 
Q 4.046875 40.921875 2.6875 41.015625 
L 2.6875 42.96875 
Q 5.859375 43.796875 8.90625 44.65625 
Q 11.96875 45.515625 14.40625 46.875 
L 16.109375 45.171875 
L 16.75 34.078125 
Q 18.0625 36.765625 19.59375 39.109375 
Q 21.140625 41.453125 22.890625 43.1875 
Q 24.65625 44.921875 26.578125 45.890625 
Q 28.515625 46.875 30.609375 46.875 
Q 32.171875 46.875 33.984375 46.484375 
Q 35.796875 46.09375 37.59375 45.0625 
z
" id="GentiumBasic-72"/>
      <path d="M 17.1875 4.890625 
Q 20.125 4.890625 23.40625 6.375 
Q 26.703125 7.859375 30.421875 11.078125 
L 30.421875 23.734375 
Q 26.3125 23.046875 23.65625 22.40625 
Q 21 21.78125 19.28125 21.109375 
Q 17.578125 20.453125 16.546875 19.71875 
Q 15.53125 19 14.75 18.171875 
Q 13.484375 16.84375 12.703125 15.15625 
Q 11.921875 13.484375 11.921875 11.1875 
Q 11.921875 9.234375 12.5 8 
Q 13.09375 6.78125 13.921875 6.078125 
Q 14.75 5.375 15.640625 5.125 
Q 16.546875 4.890625 17.1875 4.890625 
z
M 45.21875 4 
Q 41.0625 1.125 38.34375 -0.171875 
Q 35.640625 -1.46875 34.28125 -1.46875 
Q 32.671875 -1.46875 31.59375 0.78125 
Q 30.515625 3.03125 30.421875 6.984375 
Q 28.21875 4.78125 26.015625 3.171875 
Q 23.828125 1.5625 21.71875 0.53125 
Q 19.625 -0.484375 17.75 -0.96875 
Q 15.875 -1.46875 14.3125 -1.46875 
Q 12.546875 -1.46875 10.6875 -0.875 
Q 8.84375 -0.296875 7.34375 0.96875 
Q 5.859375 2.25 4.875 4.25 
Q 3.90625 6.25 3.90625 9.078125 
Q 3.90625 12.796875 5.203125 15.28125 
Q 6.5 17.78125 8.296875 19.578125 
Q 9.46875 20.75 10.953125 21.796875 
Q 12.453125 22.859375 14.921875 23.828125 
Q 17.390625 24.8125 21.09375 25.6875 
Q 24.8125 26.5625 30.421875 27.390625 
L 30.421875 34.28125 
Q 30.421875 35.9375 30.03125 37.375 
Q 29.640625 38.8125 28.703125 39.859375 
Q 27.78125 40.921875 26.1875 41.484375 
Q 24.609375 42.046875 22.21875 42 
Q 20.65625 41.9375 19.140625 41.453125 
Q 17.625 40.96875 16.5 40.078125 
Q 15.375 39.203125 14.734375 38 
Q 14.109375 36.8125 14.265625 35.359375 
Q 14.3125 34.90625 13.25 34.34375 
Q 12.203125 33.796875 10.765625 33.34375 
Q 9.328125 32.90625 7.9375 32.65625 
Q 6.546875 32.421875 5.953125 32.5625 
L 5.28125 34.46875 
Q 6.390625 36.921875 8.6875 39.15625 
Q 10.984375 41.40625 13.9375 43.109375 
Q 16.890625 44.828125 20.1875 45.84375 
Q 23.484375 46.875 26.5625 46.875 
Q 31.9375 46.875 34.84375 44.0625 
Q 37.75 41.265625 37.75 36.234375 
L 37.75 8.6875 
Q 37.75 6.640625 38.28125 5.765625 
Q 38.8125 4.890625 39.703125 4.890625 
Q 40.375 4.890625 41.453125 5.125 
Q 42.53125 5.375 44.484375 6.203125 
z
" id="GentiumBasic-61"/>
      <path d="M 32.71875 0 
L 32.71875 2.09375 
Q 36.234375 3.03125 37.890625 3.703125 
Q 39.546875 4.390625 39.546875 5.078125 
L 39.546875 30.90625 
Q 39.546875 33.890625 39.203125 35.734375 
Q 38.875 37.59375 38.140625 38.671875 
Q 37.40625 39.75 36.203125 40.140625 
Q 35.015625 40.53125 33.296875 40.53125 
Q 31.78125 40.53125 29.921875 39.796875 
Q 28.078125 39.0625 25.953125 37.453125 
Q 23.828125 35.84375 21.5 33.21875 
Q 19.1875 30.609375 16.84375 26.8125 
L 16.84375 5.078125 
Q 16.84375 4.34375 18.671875 3.5625 
Q 20.515625 2.78125 23.6875 2.09375 
L 23.6875 0 
L 2.6875 0 
L 2.6875 2.09375 
Q 5.90625 2.9375 7.703125 3.59375 
Q 9.515625 4.25 9.515625 5.078125 
L 9.515625 34.71875 
Q 9.515625 36.625 9.375 37.75 
Q 9.234375 38.875 8.5625 39.5 
Q 7.90625 40.140625 6.53125 40.421875 
Q 5.171875 40.71875 2.6875 41.015625 
L 2.6875 42.96875 
Q 6 43.5 8.828125 44.5 
Q 11.671875 45.515625 14.40625 46.875 
L 16.109375 45.171875 
L 16.65625 33.015625 
Q 18.796875 36.28125 21.375 38.84375 
Q 23.96875 41.40625 26.609375 43.1875 
Q 29.25 44.96875 31.71875 45.921875 
Q 34.1875 46.875 36.078125 46.875 
Q 38.1875 46.875 40.140625 46.234375 
Q 42.09375 45.609375 43.578125 44.28125 
Q 45.0625 42.96875 45.96875 40.9375 
Q 46.875 38.921875 46.875 36.1875 
L 46.875 5.078125 
Q 46.875 4.390625 48.359375 3.734375 
Q 49.859375 3.078125 53.71875 2.09375 
L 53.71875 0 
z
" id="GentiumBasic-6e"/>
      <path d="M 10.296875 -13.875 
Q 9.8125 -14.203125 9.03125 -14.5625 
Q 8.25 -14.9375 7.375 -15.25 
Q 6.5 -15.578125 5.640625 -15.859375 
Q 4.78125 -16.15625 4.203125 -16.359375 
L 2.390625 -15.140625 
L 36.625 75.734375 
Q 37.9375 76.5625 39.546875 77.140625 
Q 41.15625 77.734375 42.578125 78.125 
L 44.390625 77.046875 
z
" id="GentiumBasic-2f"/>
     </defs>
     <g transform="translate(16.2825 179.004687)rotate(-90)scale(0.12 -0.12)">
      <use xlink:href="#GentiumBasic-54"/>
      <use x="55.078125" xlink:href="#GentiumBasic-43"/>
      <use x="108.691406" xlink:href="#GentiumBasic-50"/>
      <use x="160.986328" xlink:href="#GentiumBasic-20"/>
      <use x="183.007812" xlink:href="#GentiumBasic-4b"/>
      <use x="240.820312" xlink:href="#GentiumBasic-74"/>
      <use x="275.244141" xlink:href="#GentiumBasic-72"/>
      <use x="314.84375" xlink:href="#GentiumBasic-61"/>
      <use x="360.742188" xlink:href="#GentiumBasic-6e"/>
      <use x="415.917969" xlink:href="#GentiumBasic-73"/>
      <use x="454.541016" xlink:href="#GentiumBasic-2f"/>
      <use x="501.464844" xlink:href="#GentiumBasic-73"/>
     </g>
    </g>
   </g>
   <g id="line2d_13">
    <path clip-path="url(#p2eb4bc5aed)" d="M 61.647159 23.054545 
L 65.791134 31.59303 
L 69.74086 33.722789 
L 77.834562 38.021206 
L 94.021964 51.927849 
L 110.209367 58.764472 
L 142.584172 68.82977 
L 174.958977 65.280172 
L 223.521185 54.884227 
L 272.083392 49.593867 
L 320.6456 56.265166 
L 336.833002 64.093731 
L 353.020405 66.816711 
L 369.207807 75.870616 
L 377.301509 85.897015 
L 385.39521 107.641948 
L 402.553857 267.150177 
L 467.465341 269.853707 
" style="fill:none;stroke:#1f77b4;stroke-linecap:square;stroke-width:1.5;"/>
    <defs>
     <path d="M 0 3 
C 0.795609 3 1.55874 2.683901 2.12132 2.12132 
C 2.683901 1.55874 3 0.795609 3 0 
C 3 -0.795609 2.683901 -1.55874 2.12132 -2.12132 
C 1.55874 -2.683901 0.795609 -3 0 -3 
C -0.795609 -3 -1.55874 -2.683901 -2.12132 -2.12132 
C -2.683901 -1.55874 -3 -0.795609 -3 0 
C -3 0.795609 -2.683901 1.55874 -2.12132 2.12132 
C -1.55874 2.683901 -0.795609 3 0 3 
z
" id="m75bdccaa41" style="stroke:#1f77b4;"/>
    </defs>
    <g clip-path="url(#p2eb4bc5aed)">
     <use style="fill:#1f77b4;stroke:#1f77b4;" x="61.647159" xlink:href="#m75bdccaa41" y="23.054545"/>
     <use style="fill:#1f77b4;stroke:#1f77b4;" x="65.791134" xlink:href="#m75bdccaa41" y="31.59303"/>
     <use style="fill:#1f77b4;stroke:#1f77b4;" x="69.74086" xlink:href="#m75bdccaa41" y="33.722789"/>
     <use style="fill:#1f77b4;stroke:#1f77b4;" x="77.834562" xlink:href="#m75bdccaa41" y="38.021206"/>
     <use style="fill:#1f77b4;stroke:#1f77b4;" x="94.021964" xlink:href="#m75bdccaa41" y="51.927849"/>
     <use style="fill:#1f77b4;stroke:#1f77b4;" x="110.209367" xlink:href="#m75bdccaa41" y="58.764472"/>
     <use style="fill:#1f77b4;stroke:#1f77b4;" x="142.584172" xlink:href="#m75bdccaa41" y="68.82977"/>
     <use style="fill:#1f77b4;stroke:#1f77b4;" x="174.958977" xlink:href="#m75bdccaa41" y="65.280172"/>
     <use style="fill:#1f77b4;stroke:#1f77b4;" x="223.521185" xlink:href="#m75bdccaa41" y="54.884227"/>
     <use style="fill:#1f77b4;stroke:#1f77b4;" x="272.083392" xlink:href="#m75bdccaa41" y="49.593867"/>
     <use style="fill:#1f77b4;stroke:#1f77b4;" x="320.6456" xlink:href="#m75bdccaa41" y="56.265166"/>
     <use style="fill:#1f77b4;stroke:#1f77b4;" x="336.833002" xlink:href="#m75bdccaa41" y="64.093731"/>
     <use style="fill:#1f77b4;stroke:#1f77b4;" x="353.020405" xlink:href="#m75bdccaa41" y="66.816711"/>
     <use style="fill:#1f77b4;stroke:#1f77b4;" x="369.207807" xlink:href="#m75bdccaa41" y="75.870616"/>
     <use style="fill:#1f77b4;stroke:#1f77b4;" x="377.301509" xlink:href="#m75bdccaa41" y="85.897015"/>
     <use style="fill:#1f77b4;stroke:#1f77b4;" x="385.39521" xlink:href="#m75bdccaa41" y="107.641948"/>
     <use style="fill:#1f77b4;stroke:#1f77b4;" x="402.553857" xlink:href="#m75bdccaa41" y="267.150177"/>
     <use style="fill:#1f77b4;stroke:#1f77b4;" x="467.465341" xlink:href="#m75bdccaa41" y="269.853707"/>
    </g>
   </g>
   <g id="line2d_14">
    <path clip-path="url(#p2eb4bc5aed)" d="M 61.647159 33.504172 
L 65.791134 44.494603 
L 69.74086 55.321557 
L 77.834562 88.07462 
L 94.021964 88.628843 
L 102.115665 143.486273 
L 106.162516 168.812994 
L 107.13376 223.378676 
L 108.7525 269.3979 
L 110.209367 270.145455 
L 142.584172 270.145455 
" style="fill:none;stroke:#ff7f0e;stroke-linecap:square;stroke-width:1.5;"/>
    <defs>
     <path d="M 0 3 
C 0.795609 3 1.55874 2.683901 2.12132 2.12132 
C 2.683901 1.55874 3 0.795609 3 0 
C 3 -0.795609 2.683901 -1.55874 2.12132 -2.12132 
C 1.55874 -2.683901 0.795609 -3 0 -3 
C -0.795609 -3 -1.55874 -2.683901 -2.12132 -2.12132 
C -2.683901 -1.55874 -3 -0.795609 -3 0 
C -3 0.795609 -2.683901 1.55874 -2.12132 2.12132 
C -1.55874 2.683901 -0.795609 3 0 3 
z
" id="md7b7061237" style="stroke:#ff7f0e;"/>
    </defs>
    <g clip-path="url(#p2eb4bc5aed)">
     <use style="fill:#ff7f0e;stroke:#ff7f0e;" x="61.647159" xlink:href="#md7b7061237" y="33.504172"/>
     <use style="fill:#ff7f0e;stroke:#ff7f0e;" x="65.791134" xlink:href="#md7b7061237" y="44.494603"/>
     <use style="fill:#ff7f0e;stroke:#ff7f0e;" x="69.74086" xlink:href="#md7b7061237" y="55.321557"/>
     <use style="fill:#ff7f0e;stroke:#ff7f0e;" x="77.834562" xlink:href="#md7b7061237" y="88.07462"/>
     <use style="fill:#ff7f0e;stroke:#ff7f0e;" x="94.021964" xlink:href="#md7b7061237" y="88.628843"/>
     <use style="fill:#ff7f0e;stroke:#ff7f0e;" x="102.115665" xlink:href="#md7b7061237" y="143.486273"/>
     <use style="fill:#ff7f0e;stroke:#ff7f0e;" x="106.162516" xlink:href="#md7b7061237" y="168.812994"/>
     <use style="fill:#ff7f0e;stroke:#ff7f0e;" x="107.13376" xlink:href="#md7b7061237" y="223.378676"/>
     <use style="fill:#ff7f0e;stroke:#ff7f0e;" x="108.7525" xlink:href="#md7b7061237" y="269.3979"/>
     <use style="fill:#ff7f0e;stroke:#ff7f0e;" x="110.209367" xlink:href="#md7b7061237" y="270.145455"/>
     <use style="fill:#ff7f0e;stroke:#ff7f0e;" x="142.584172" xlink:href="#md7b7061237" y="270.145455"/>
    </g>
   </g>
   <g id="patch_3">
    <path d="M 41.35625 282.5 
L 41.35625 10.7 
" style="fill:none;stroke:#000000;stroke-linecap:square;stroke-linejoin:miter;stroke-width:0.8;"/>
   </g>
   <g id="patch_4">
    <path d="M 487.75625 282.5 
L 487.75625 10.7 
" style="fill:none;stroke:#000000;stroke-linecap:square;stroke-linejoin:miter;stroke-width:0.8;"/>
   </g>
   <g id="patch_5">
    <path d="M 41.35625 282.5 
L 487.75625 282.5 
" style="fill:none;stroke:#000000;stroke-linecap:square;stroke-linejoin:miter;stroke-width:0.8;"/>
   </g>
   <g id="patch_6">
    <path d="M 41.35625 10.7 
L 487.75625 10.7 
" style="fill:none;stroke:#000000;stroke-linecap:square;stroke-linejoin:miter;stroke-width:0.8;"/>
   </g>
  </g>
 </g>
 <defs>
  <clipPath id="p2eb4bc5aed">
   <rect height="271.8" width="446.4" x="41.35625" y="10.7"/>
  </clipPath>
 </defs>
</svg>
