<?xml version="1.0" encoding="UTF-8" standalone="no"?>
<svg
   xmlns:dc="http://purl.org/dc/elements/1.1/"
   xmlns:cc="http://creativecommons.org/ns#"
   xmlns:rdf="http://www.w3.org/1999/02/22-rdf-syntax-ns#"
   xmlns:svg="http://www.w3.org/2000/svg"
   xmlns="http://www.w3.org/2000/svg"
   viewBox="0 0 676.33752 434.41251"
   height="434.41251"
   width="676.33752"
   xml:space="preserve"
   id="svg2"
   version="1.1"><metadata
     id="metadata8"><rdf:RDF><cc:Work
         rdf:about=""><dc:format>image/svg+xml</dc:format><dc:type
           rdf:resource="http://purl.org/dc/dcmitype/StillImage" /></cc:Work></rdf:RDF></metadata><defs
     id="defs6"><clipPath
       id="clipPath22"
       clipPathUnits="userSpaceOnUse"><path
         id="path20"
         d="M 53.653125,46.809375 H 500.05312 V 318.60937 H 53.653125 Z" /></clipPath><clipPath
       id="clipPath38"
       clipPathUnits="userSpaceOnUse"><path
         id="path36"
         d="M 53.653125,46.809375 H 500.05312 V 318.60937 H 53.653125 Z" /></clipPath><clipPath
       id="clipPath54"
       clipPathUnits="userSpaceOnUse"><path
         id="path52"
         d="M 53.653125,46.809375 H 500.05312 V 318.60937 H 53.653125 Z" /></clipPath><clipPath
       id="clipPath70"
       clipPathUnits="userSpaceOnUse"><path
         id="path68"
         d="M 53.653125,46.809375 H 500.05312 V 318.60937 H 53.653125 Z" /></clipPath><clipPath
       id="clipPath86"
       clipPathUnits="userSpaceOnUse"><path
         id="path84"
         d="M 53.653125,46.809375 H 500.05312 V 318.60937 H 53.653125 Z" /></clipPath><clipPath
       id="clipPath102"
       clipPathUnits="userSpaceOnUse"><path
         id="path100"
         d="M 53.653125,46.809375 H 500.05312 V 318.60937 H 53.653125 Z" /></clipPath><clipPath
       id="clipPath122"
       clipPathUnits="userSpaceOnUse"><path
         id="path120"
         d="M 53.653125,46.809375 H 500.05312 V 318.60937 H 53.653125 Z" /></clipPath><clipPath
       id="clipPath138"
       clipPathUnits="userSpaceOnUse"><path
         id="path136"
         d="M 53.653125,46.809375 H 500.05312 V 318.60937 H 53.653125 Z" /></clipPath><clipPath
       id="clipPath154"
       clipPathUnits="userSpaceOnUse"><path
         id="path152"
         d="M 53.653125,46.809375 H 500.05312 V 318.60937 H 53.653125 Z" /></clipPath><clipPath
       id="clipPath170"
       clipPathUnits="userSpaceOnUse"><path
         id="path168"
         d="M 53.653125,46.809375 H 500.05312 V 318.60937 H 53.653125 Z" /></clipPath><clipPath
       id="clipPath186"
       clipPathUnits="userSpaceOnUse"><path
         id="path184"
         d="M 53.653125,46.809375 H 500.05312 V 318.60937 H 53.653125 Z" /></clipPath><clipPath
       id="clipPath202"
       clipPathUnits="userSpaceOnUse"><path
         id="path200"
         d="M 53.653125,46.809375 H 500.05312 V 318.60937 H 53.653125 Z" /></clipPath><clipPath
       id="clipPath222"
       clipPathUnits="userSpaceOnUse"><path
         id="path220"
         d="M 53.653125,46.809375 H 500.05312 V 318.60937 H 53.653125 Z" /></clipPath><clipPath
       id="clipPath234"
       clipPathUnits="userSpaceOnUse"><path
         id="path232"
         d="m -3.5,-3.5 h 7 v 7 h -7 z" /></clipPath><clipPath
       id="clipPath246"
       clipPathUnits="userSpaceOnUse"><path
         id="path244"
         d="m -3.5,-3.5 h 7 v 7 h -7 z" /></clipPath><clipPath
       id="clipPath258"
       clipPathUnits="userSpaceOnUse"><path
         id="path256"
         d="m -3.5,-3.5 h 7 v 7 h -7 z" /></clipPath><clipPath
       id="clipPath270"
       clipPathUnits="userSpaceOnUse"><path
         id="path268"
         d="m -3.5,-3.5 h 7 v 7 h -7 z" /></clipPath><clipPath
       id="clipPath282"
       clipPathUnits="userSpaceOnUse"><path
         id="path280"
         d="m -3.5,-3.5 h 7 v 7 h -7 z" /></clipPath><clipPath
       id="clipPath294"
       clipPathUnits="userSpaceOnUse"><path
         id="path292"
         d="m -3.5,-3.5 h 7 v 7 h -7 z" /></clipPath><clipPath
       id="clipPath306"
       clipPathUnits="userSpaceOnUse"><path
         id="path304"
         d="m -3.5,-3.5 h 7 v 7 h -7 z" /></clipPath><clipPath
       id="clipPath318"
       clipPathUnits="userSpaceOnUse"><path
         id="path316"
         d="m -3.5,-3.5 h 7 v 7 h -7 z" /></clipPath><clipPath
       id="clipPath330"
       clipPathUnits="userSpaceOnUse"><path
         id="path328"
         d="m -3.5,-3.5 h 7 v 7 h -7 z" /></clipPath><clipPath
       id="clipPath342"
       clipPathUnits="userSpaceOnUse"><path
         id="path340"
         d="m -3.5,-3.5 h 7 v 7 h -7 z" /></clipPath><clipPath
       id="clipPath354"
       clipPathUnits="userSpaceOnUse"><path
         id="path352"
         d="m -3.5,-3.5 h 7 v 7 h -7 z" /></clipPath><clipPath
       id="clipPath366"
       clipPathUnits="userSpaceOnUse"><path
         id="path364"
         d="m -3.5,-3.5 h 7 v 7 h -7 z" /></clipPath><clipPath
       id="clipPath376"
       clipPathUnits="userSpaceOnUse"><path
         id="path374"
         d="M 53.653125,46.809375 H 500.05312 V 318.60937 H 53.653125 Z" /></clipPath><clipPath
       id="clipPath388"
       clipPathUnits="userSpaceOnUse"><path
         id="path386"
         d="m -3.5,-3.5 h 7 v 7 h -7 z" /></clipPath><clipPath
       id="clipPath400"
       clipPathUnits="userSpaceOnUse"><path
         id="path398"
         d="m -3.5,-3.5 h 7 v 7 h -7 z" /></clipPath><clipPath
       id="clipPath412"
       clipPathUnits="userSpaceOnUse"><path
         id="path410"
         d="m -3.5,-3.5 h 7 v 7 h -7 z" /></clipPath><clipPath
       id="clipPath424"
       clipPathUnits="userSpaceOnUse"><path
         id="path422"
         d="m -3.5,-3.5 h 7 v 7 h -7 z" /></clipPath><clipPath
       id="clipPath436"
       clipPathUnits="userSpaceOnUse"><path
         id="path434"
         d="m -3.5,-3.5 h 7 v 7 h -7 z" /></clipPath><clipPath
       id="clipPath448"
       clipPathUnits="userSpaceOnUse"><path
         id="path446"
         d="m -3.5,-3.5 h 7 v 7 h -7 z" /></clipPath><clipPath
       id="clipPath460"
       clipPathUnits="userSpaceOnUse"><path
         id="path458"
         d="m -3.5,-3.5 h 7 v 7 h -7 z" /></clipPath><clipPath
       id="clipPath472"
       clipPathUnits="userSpaceOnUse"><path
         id="path470"
         d="m -3.5,-3.5 h 7 v 7 h -7 z" /></clipPath><clipPath
       id="clipPath484"
       clipPathUnits="userSpaceOnUse"><path
         id="path482"
         d="m -3.5,-3.5 h 7 v 7 h -7 z" /></clipPath><clipPath
       id="clipPath496"
       clipPathUnits="userSpaceOnUse"><path
         id="path494"
         d="m -3.5,-3.5 h 7 v 7 h -7 z" /></clipPath><clipPath
       id="clipPath508"
       clipPathUnits="userSpaceOnUse"><path
         id="path506"
         d="m -3.5,-3.5 h 7 v 7 h -7 z" /></clipPath><clipPath
       id="clipPath518"
       clipPathUnits="userSpaceOnUse"><path
         id="path516"
         d="M 53.653125,46.809375 H 500.05312 V 318.60937 H 53.653125 Z" /></clipPath><clipPath
       id="clipPath530"
       clipPathUnits="userSpaceOnUse"><path
         id="path528"
         d="m -3.5,-3.5 h 7 v 7 h -7 z" /></clipPath><clipPath
       id="clipPath542"
       clipPathUnits="userSpaceOnUse"><path
         id="path540"
         d="m -3.5,-3.5 h 7 v 7 h -7 z" /></clipPath><clipPath
       id="clipPath554"
       clipPathUnits="userSpaceOnUse"><path
         id="path552"
         d="m -3.5,-3.5 h 7 v 7 h -7 z" /></clipPath><clipPath
       id="clipPath566"
       clipPathUnits="userSpaceOnUse"><path
         id="path564"
         d="m -3.5,-3.5 h 7 v 7 h -7 z" /></clipPath><clipPath
       id="clipPath578"
       clipPathUnits="userSpaceOnUse"><path
         id="path576"
         d="m -3.5,-3.5 h 7 v 7 h -7 z" /></clipPath><clipPath
       id="clipPath590"
       clipPathUnits="userSpaceOnUse"><path
         id="path588"
         d="m -3.5,-3.5 h 7 v 7 h -7 z" /></clipPath><clipPath
       id="clipPath602"
       clipPathUnits="userSpaceOnUse"><path
         id="path600"
         d="m -3.5,-3.5 h 7 v 7 h -7 z" /></clipPath></defs><g
     transform="matrix(1.3333333,0,0,-1.3333333,0,434.4125)"
     id="g10"><path
       id="path12"
       style="fill:#ffffff;fill-opacity:1;fill-rule:nonzero;stroke:none"
       d="M 0,0 H 507.25312 V 325.80937 H 0 Z" /><path
       id="path14"
       style="fill:#e6e6e6;fill-opacity:1;fill-rule:nonzero;stroke:none"
       d="M 53.653125,46.809375 H 500.05312 V 318.60937 H 53.653125 Z" /><g
       id="g16"><g
         clip-path="url(#clipPath22)"
         id="g18"><path
           id="path24"
           style="fill:none;stroke:#ffffff;stroke-width:1;stroke-linecap:round;stroke-linejoin:round;stroke-miterlimit:10;stroke-dasharray:none;stroke-opacity:1"
           d="M 53.653125,46.809375 V 318.60937" /></g></g><g
       id="g26"><text
         id="text30"
         style="font-variant:normal;font-weight:normal;font-size:16px;font-family:'Gentium Basic';-inkscape-font-specification:GentiumBasic;writing-mode:lr-tb;fill:#000000;fill-opacity:1;fill-rule:nonzero;stroke:none"
         transform="matrix(1,0,0,-1,49.895313,31.2)"><tspan
           id="tspan28"
           y="0"
           x="0">0</tspan></text>
</g><g
       id="g32"><g
         clip-path="url(#clipPath38)"
         id="g34"><path
           id="path40"
           style="fill:none;stroke:#ffffff;stroke-width:1;stroke-linecap:round;stroke-linejoin:round;stroke-miterlimit:10;stroke-dasharray:none;stroke-opacity:1"
           d="M 136.31979,46.809375 V 318.60937" /></g></g><g
       id="g42"><text
         id="text46"
         style="font-variant:normal;font-weight:normal;font-size:16px;font-family:'Gentium Basic';-inkscape-font-specification:GentiumBasic;writing-mode:lr-tb;fill:#000000;fill-opacity:1;fill-rule:nonzero;stroke:none"
         transform="matrix(1,0,0,-1,132.56198,31.2)"><tspan
           id="tspan44"
           y="0"
           x="0">5</tspan></text>
</g><g
       id="g48"><g
         clip-path="url(#clipPath54)"
         id="g50"><path
           id="path56"
           style="fill:none;stroke:#ffffff;stroke-width:1;stroke-linecap:round;stroke-linejoin:round;stroke-miterlimit:10;stroke-dasharray:none;stroke-opacity:1"
           d="M 218.98646,46.809375 V 318.60937" /></g></g><g
       id="g58"><text
         id="text62"
         style="font-variant:normal;font-weight:normal;font-size:16px;font-family:'Gentium Basic';-inkscape-font-specification:GentiumBasic;writing-mode:lr-tb;fill:#000000;fill-opacity:1;fill-rule:nonzero;stroke:none"
         transform="matrix(1,0,0,-1,211.47083,31.2)"><tspan
           id="tspan60"
           y="0"
           x="0 7.5040002">10</tspan></text>
</g><g
       id="g64"><g
         clip-path="url(#clipPath70)"
         id="g66"><path
           id="path72"
           style="fill:none;stroke:#ffffff;stroke-width:1;stroke-linecap:round;stroke-linejoin:round;stroke-miterlimit:10;stroke-dasharray:none;stroke-opacity:1"
           d="M 301.65312,46.809375 V 318.60937" /></g></g><g
       id="g74"><text
         id="text78"
         style="font-variant:normal;font-weight:normal;font-size:16px;font-family:'Gentium Basic';-inkscape-font-specification:GentiumBasic;writing-mode:lr-tb;fill:#000000;fill-opacity:1;fill-rule:nonzero;stroke:none"
         transform="matrix(1,0,0,-1,294.1375,31.2)"><tspan
           id="tspan76"
           y="0"
           x="0 7.5040002">15</tspan></text>
</g><g
       id="g80"><g
         clip-path="url(#clipPath86)"
         id="g82"><path
           id="path88"
           style="fill:none;stroke:#ffffff;stroke-width:1;stroke-linecap:round;stroke-linejoin:round;stroke-miterlimit:10;stroke-dasharray:none;stroke-opacity:1"
           d="M 384.31979,46.809375 V 318.60937" /></g></g><g
       id="g90"><text
         id="text94"
         style="font-variant:normal;font-weight:normal;font-size:16px;font-family:'Gentium Basic';-inkscape-font-specification:GentiumBasic;writing-mode:lr-tb;fill:#000000;fill-opacity:1;fill-rule:nonzero;stroke:none"
         transform="matrix(1,0,0,-1,376.80417,31.2)"><tspan
           id="tspan92"
           y="0"
           x="0 7.5040002">20</tspan></text>
</g><g
       id="g96"><g
         clip-path="url(#clipPath102)"
         id="g98"><path
           id="path104"
           style="fill:none;stroke:#ffffff;stroke-width:1;stroke-linecap:round;stroke-linejoin:round;stroke-miterlimit:10;stroke-dasharray:none;stroke-opacity:1"
           d="M 466.98646,46.809375 V 318.60937" /></g></g><g
       id="g106"><text
         id="text110"
         style="font-variant:normal;font-weight:normal;font-size:16px;font-family:'Gentium Basic';-inkscape-font-specification:GentiumBasic;writing-mode:lr-tb;fill:#000000;fill-opacity:1;fill-rule:nonzero;stroke:none"
         transform="matrix(1,0,0,-1,459.47083,31.2)"><tspan
           id="tspan108"
           y="0"
           x="0 7.5040002">25</tspan></text>
<text
         id="text114"
         style="font-variant:normal;font-weight:normal;font-size:16px;font-family:'Gentium Basic';-inkscape-font-specification:GentiumBasic;writing-mode:lr-tb;fill:#000000;fill-opacity:1;fill-rule:nonzero;stroke:none"
         transform="matrix(1,0,0,-1,211.66562,10.95)"><tspan
           id="tspan112"
           y="0"
           x="0 9.6000004 14.576 19.552 26.944 33.279999 40.672001 48.992001 52.512001 56.848 64.896004 72.239998 80.559998 84.080002 89.152 102.048 110.528 119.008 125.184">Offered load (Mpps)</tspan></text>
</g><g
       id="g116"><g
         clip-path="url(#clipPath122)"
         id="g118"><path
           id="path124"
           style="fill:none;stroke:#ffffff;stroke-width:1;stroke-linecap:round;stroke-linejoin:round;stroke-miterlimit:10;stroke-dasharray:none;stroke-opacity:1"
           d="M 53.653125,46.809375 H 500.05312" /></g></g><g
       id="g126"><text
         id="text130"
         style="font-variant:normal;font-weight:normal;font-size:16px;font-family:'Gentium Basic';-inkscape-font-specification:GentiumBasic;writing-mode:lr-tb;fill:#000000;fill-opacity:1;fill-rule:nonzero;stroke:none"
         transform="matrix(1,0,0,-1,42.6375,40.754687)"><tspan
           id="tspan128"
           y="0"
           x="0">0</tspan></text>
</g><g
       id="g132"><g
         clip-path="url(#clipPath138)"
         id="g134"><path
           id="path140"
           style="fill:none;stroke:#ffffff;stroke-width:1;stroke-linecap:round;stroke-linejoin:round;stroke-miterlimit:10;stroke-dasharray:none;stroke-opacity:1"
           d="M 53.653125,96.227557 H 500.05312" /></g></g><g
       id="g142"><text
         id="text146"
         style="font-variant:normal;font-weight:normal;font-size:16px;font-family:'Gentium Basic';-inkscape-font-specification:GentiumBasic;writing-mode:lr-tb;fill:#000000;fill-opacity:1;fill-rule:nonzero;stroke:none"
         transform="matrix(1,0,0,-1,35.121875,90.172869)"><tspan
           id="tspan144"
           y="0"
           x="0 7.5040002">20</tspan></text>
</g><g
       id="g148"><g
         clip-path="url(#clipPath154)"
         id="g150"><path
           id="path156"
           style="fill:none;stroke:#ffffff;stroke-width:1;stroke-linecap:round;stroke-linejoin:round;stroke-miterlimit:10;stroke-dasharray:none;stroke-opacity:1"
           d="M 53.653125,145.64574 H 500.05312" /></g></g><g
       id="g158"><text
         id="text162"
         style="font-variant:normal;font-weight:normal;font-size:16px;font-family:'Gentium Basic';-inkscape-font-specification:GentiumBasic;writing-mode:lr-tb;fill:#000000;fill-opacity:1;fill-rule:nonzero;stroke:none"
         transform="matrix(1,0,0,-1,35.121875,139.59105)"><tspan
           id="tspan160"
           y="0"
           x="0 7.5040002">40</tspan></text>
</g><g
       id="g164"><g
         clip-path="url(#clipPath170)"
         id="g166"><path
           id="path172"
           style="fill:none;stroke:#ffffff;stroke-width:1;stroke-linecap:round;stroke-linejoin:round;stroke-miterlimit:10;stroke-dasharray:none;stroke-opacity:1"
           d="M 53.653125,195.06392 H 500.05312" /></g></g><g
       id="g174"><text
         id="text178"
         style="font-variant:normal;font-weight:normal;font-size:16px;font-family:'Gentium Basic';-inkscape-font-specification:GentiumBasic;writing-mode:lr-tb;fill:#000000;fill-opacity:1;fill-rule:nonzero;stroke:none"
         transform="matrix(1,0,0,-1,35.121875,189.00923)"><tspan
           id="tspan176"
           y="0"
           x="0 7.5040002">60</tspan></text>
</g><g
       id="g180"><g
         clip-path="url(#clipPath186)"
         id="g182"><path
           id="path188"
           style="fill:none;stroke:#ffffff;stroke-width:1;stroke-linecap:round;stroke-linejoin:round;stroke-miterlimit:10;stroke-dasharray:none;stroke-opacity:1"
           d="M 53.653125,244.4821 H 500.05312" /></g></g><g
       id="g190"><text
         id="text194"
         style="font-variant:normal;font-weight:normal;font-size:16px;font-family:'Gentium Basic';-inkscape-font-specification:GentiumBasic;writing-mode:lr-tb;fill:#000000;fill-opacity:1;fill-rule:nonzero;stroke:none"
         transform="matrix(1,0,0,-1,35.121875,238.42741)"><tspan
           id="tspan192"
           y="0"
           x="0 7.5040002">80</tspan></text>
</g><g
       id="g196"><g
         clip-path="url(#clipPath202)"
         id="g198"><path
           id="path204"
           style="fill:none;stroke:#ffffff;stroke-width:1;stroke-linecap:round;stroke-linejoin:round;stroke-miterlimit:10;stroke-dasharray:none;stroke-opacity:1"
           d="M 53.653125,293.90028 H 500.05312" /></g></g><g
       id="g206"><text
         id="text210"
         style="font-variant:normal;font-weight:normal;font-size:16px;font-family:'Gentium Basic';-inkscape-font-specification:GentiumBasic;writing-mode:lr-tb;fill:#000000;fill-opacity:1;fill-rule:nonzero;stroke:none"
         transform="matrix(1,0,0,-1,27.60625,287.8456)"><tspan
           id="tspan208"
           y="0"
           x="0 7.5040002 15.008">100</tspan></text>
<text
         id="text214"
         style="font-variant:normal;font-weight:normal;font-size:16px;font-family:'Gentium Basic';-inkscape-font-specification:GentiumBasic;writing-mode:lr-tb;fill:#000000;fill-opacity:1;fill-rule:nonzero;stroke:none"
         transform="matrix(0,1,1,0,19.7,136.25625)"><tspan
           id="tspan212"
           y="0"
           x="0 8.5760002 16.944 27.408001 30.927999 39.408001 45.584 52.928001 60.736 68.127998 71.648003 76.720001 87.760002">CPU usage (%)</tspan></text>
</g><g
       id="g216"><g
         clip-path="url(#clipPath222)"
         id="g218"><path
           id="path224"
           style="fill:none;stroke:#1b9e77;stroke-width:1;stroke-linecap:round;stroke-linejoin:round;stroke-miterlimit:10;stroke-dasharray:none;stroke-opacity:1"
           d="m 53.653125,293.90028 h 4.133333 4.133334 8.266666 16.533334 16.533338 33.06666 82.66667 82.66666 82.66667 79.36 3.30667 41.26666" /><g
           transform="translate(53.653125,293.90028)"
           id="g226"><g
             id="g228"><g
               clip-path="url(#clipPath234)"
               id="g230"><path
                 id="path236"
                 style="fill:#1b9e77;fill-opacity:1;fill-rule:nonzero;stroke:#1b9e77;stroke-width:1;stroke-linecap:butt;stroke-linejoin:round;stroke-miterlimit:10;stroke-dasharray:none;stroke-opacity:1"
                 d="m 0,-3 c 0.795609,0 1.55874,0.316099 2.12132,0.87868 C 2.683901,-1.55874 3,-0.795609 3,0 3,0.795609 2.683901,1.55874 2.12132,2.12132 1.55874,2.683901 0.795609,3 0,3 -0.795609,3 -1.55874,2.683901 -2.12132,2.12132 -2.683901,1.55874 -3,0.795609 -3,0 -3,-0.795609 -2.683901,-1.55874 -2.12132,-2.12132 -1.55874,-2.683901 -0.795609,-3 0,-3 Z" /></g></g><g
             transform="translate(4.1333333)"
             id="g238"><g
               id="g240"><g
                 clip-path="url(#clipPath246)"
                 id="g242"><path
                   id="path248"
                   style="fill:#1b9e77;fill-opacity:1;fill-rule:nonzero;stroke:#1b9e77;stroke-width:1;stroke-linecap:butt;stroke-linejoin:round;stroke-miterlimit:10;stroke-dasharray:none;stroke-opacity:1"
                   d="m 0,-3 c 0.795609,0 1.55874,0.316099 2.12132,0.87868 C 2.683901,-1.55874 3,-0.795609 3,0 3,0.795609 2.683901,1.55874 2.12132,2.12132 1.55874,2.683901 0.795609,3 0,3 -0.795609,3 -1.55874,2.683901 -2.12132,2.12132 -2.683901,1.55874 -3,0.795609 -3,0 -3,-0.795609 -2.683901,-1.55874 -2.12132,-2.12132 -1.55874,-2.683901 -0.795609,-3 0,-3 Z" /></g></g><g
               transform="translate(4.1333333)"
               id="g250"><g
                 id="g252"><g
                   clip-path="url(#clipPath258)"
                   id="g254"><path
                     id="path260"
                     style="fill:#1b9e77;fill-opacity:1;fill-rule:nonzero;stroke:#1b9e77;stroke-width:1;stroke-linecap:butt;stroke-linejoin:round;stroke-miterlimit:10;stroke-dasharray:none;stroke-opacity:1"
                     d="m 0,-3 c 0.795609,0 1.55874,0.316099 2.12132,0.87868 C 2.683901,-1.55874 3,-0.795609 3,0 3,0.795609 2.683901,1.55874 2.12132,2.12132 1.55874,2.683901 0.795609,3 0,3 -0.795609,3 -1.55874,2.683901 -2.12132,2.12132 -2.683901,1.55874 -3,0.795609 -3,0 -3,-0.795609 -2.683901,-1.55874 -2.12132,-2.12132 -1.55874,-2.683901 -0.795609,-3 0,-3 Z" /></g></g><g
                 transform="translate(8.2666667)"
                 id="g262"><g
                   id="g264"><g
                     clip-path="url(#clipPath270)"
                     id="g266"><path
                       id="path272"
                       style="fill:#1b9e77;fill-opacity:1;fill-rule:nonzero;stroke:#1b9e77;stroke-width:1;stroke-linecap:butt;stroke-linejoin:round;stroke-miterlimit:10;stroke-dasharray:none;stroke-opacity:1"
                       d="m 0,-3 c 0.795609,0 1.55874,0.316099 2.12132,0.87868 C 2.683901,-1.55874 3,-0.795609 3,0 3,0.795609 2.683901,1.55874 2.12132,2.12132 1.55874,2.683901 0.795609,3 0,3 -0.795609,3 -1.55874,2.683901 -2.12132,2.12132 -2.683901,1.55874 -3,0.795609 -3,0 -3,-0.795609 -2.683901,-1.55874 -2.12132,-2.12132 -1.55874,-2.683901 -0.795609,-3 0,-3 Z" /></g></g><g
                   transform="translate(16.533333)"
                   id="g274"><g
                     id="g276"><g
                       clip-path="url(#clipPath282)"
                       id="g278"><path
                         id="path284"
                         style="fill:#1b9e77;fill-opacity:1;fill-rule:nonzero;stroke:#1b9e77;stroke-width:1;stroke-linecap:butt;stroke-linejoin:round;stroke-miterlimit:10;stroke-dasharray:none;stroke-opacity:1"
                         d="m 0,-3 c 0.795609,0 1.55874,0.316099 2.12132,0.87868 C 2.683901,-1.55874 3,-0.795609 3,0 3,0.795609 2.683901,1.55874 2.12132,2.12132 1.55874,2.683901 0.795609,3 0,3 -0.795609,3 -1.55874,2.683901 -2.12132,2.12132 -2.683901,1.55874 -3,0.795609 -3,0 -3,-0.795609 -2.683901,-1.55874 -2.12132,-2.12132 -1.55874,-2.683901 -0.795609,-3 0,-3 Z" /></g></g><g
                     transform="translate(16.533333)"
                     id="g286"><g
                       id="g288"><g
                         clip-path="url(#clipPath294)"
                         id="g290"><path
                           id="path296"
                           style="fill:#1b9e77;fill-opacity:1;fill-rule:nonzero;stroke:#1b9e77;stroke-width:1;stroke-linecap:butt;stroke-linejoin:round;stroke-miterlimit:10;stroke-dasharray:none;stroke-opacity:1"
                           d="m 0,-3 c 0.795609,0 1.55874,0.316099 2.12132,0.87868 C 2.683901,-1.55874 3,-0.795609 3,0 3,0.795609 2.683901,1.55874 2.12132,2.12132 1.55874,2.683901 0.795609,3 0,3 -0.795609,3 -1.55874,2.683901 -2.12132,2.12132 -2.683901,1.55874 -3,0.795609 -3,0 -3,-0.795609 -2.683901,-1.55874 -2.12132,-2.12132 -1.55874,-2.683901 -0.795609,-3 0,-3 Z" /></g></g><g
                       transform="translate(33.066667)"
                       id="g298"><g
                         id="g300"><g
                           clip-path="url(#clipPath306)"
                           id="g302"><path
                             id="path308"
                             style="fill:#1b9e77;fill-opacity:1;fill-rule:nonzero;stroke:#1b9e77;stroke-width:1;stroke-linecap:butt;stroke-linejoin:round;stroke-miterlimit:10;stroke-dasharray:none;stroke-opacity:1"
                             d="m 0,-3 c 0.795609,0 1.55874,0.316099 2.12132,0.87868 C 2.683901,-1.55874 3,-0.795609 3,0 3,0.795609 2.683901,1.55874 2.12132,2.12132 1.55874,2.683901 0.795609,3 0,3 -0.795609,3 -1.55874,2.683901 -2.12132,2.12132 -2.683901,1.55874 -3,0.795609 -3,0 -3,-0.795609 -2.683901,-1.55874 -2.12132,-2.12132 -1.55874,-2.683901 -0.795609,-3 0,-3 Z" /></g></g><g
                         transform="translate(82.666667)"
                         id="g310"><g
                           id="g312"><g
                             clip-path="url(#clipPath318)"
                             id="g314"><path
                               id="path320"
                               style="fill:#1b9e77;fill-opacity:1;fill-rule:nonzero;stroke:#1b9e77;stroke-width:1;stroke-linecap:butt;stroke-linejoin:round;stroke-miterlimit:10;stroke-dasharray:none;stroke-opacity:1"
                               d="m 0,-3 c 0.795609,0 1.55874,0.316099 2.12132,0.87868 C 2.683901,-1.55874 3,-0.795609 3,0 3,0.795609 2.683901,1.55874 2.12132,2.12132 1.55874,2.683901 0.795609,3 0,3 -0.795609,3 -1.55874,2.683901 -2.12132,2.12132 -2.683901,1.55874 -3,0.795609 -3,0 -3,-0.795609 -2.683901,-1.55874 -2.12132,-2.12132 -1.55874,-2.683901 -0.795609,-3 0,-3 Z" /></g></g><g
                           transform="translate(82.666667)"
                           id="g322"><g
                             id="g324"><g
                               clip-path="url(#clipPath330)"
                               id="g326"><path
                                 id="path332"
                                 style="fill:#1b9e77;fill-opacity:1;fill-rule:nonzero;stroke:#1b9e77;stroke-width:1;stroke-linecap:butt;stroke-linejoin:round;stroke-miterlimit:10;stroke-dasharray:none;stroke-opacity:1"
                                 d="m 0,-3 c 0.795609,0 1.55874,0.316099 2.12132,0.87868 C 2.683901,-1.55874 3,-0.795609 3,0 3,0.795609 2.683901,1.55874 2.12132,2.12132 1.55874,2.683901 0.795609,3 0,3 -0.795609,3 -1.55874,2.683901 -2.12132,2.12132 -2.683901,1.55874 -3,0.795609 -3,0 -3,-0.795609 -2.683901,-1.55874 -2.12132,-2.12132 -1.55874,-2.683901 -0.795609,-3 0,-3 Z" /></g></g><g
                             transform="translate(82.666667)"
                             id="g334"><g
                               id="g336"><g
                                 clip-path="url(#clipPath342)"
                                 id="g338"><path
                                   id="path344"
                                   style="fill:#1b9e77;fill-opacity:1;fill-rule:nonzero;stroke:#1b9e77;stroke-width:1;stroke-linecap:butt;stroke-linejoin:round;stroke-miterlimit:10;stroke-dasharray:none;stroke-opacity:1"
                                   d="m 0,-3 c 0.795609,0 1.55874,0.316099 2.12132,0.87868 C 2.683901,-1.55874 3,-0.795609 3,0 3,0.795609 2.683901,1.55874 2.12132,2.12132 1.55874,2.683901 0.795609,3 0,3 -0.795609,3 -1.55874,2.683901 -2.12132,2.12132 -2.683901,1.55874 -3,0.795609 -3,0 -3,-0.795609 -2.683901,-1.55874 -2.12132,-2.12132 -1.55874,-2.683901 -0.795609,-3 0,-3 Z" /></g></g><g
                               transform="translate(79.36)"
                               id="g346"><g
                                 id="g348"><g
                                   clip-path="url(#clipPath354)"
                                   id="g350"><path
                                   id="path356"
                                   style="fill:#1b9e77;fill-opacity:1;fill-rule:nonzero;stroke:#1b9e77;stroke-width:1;stroke-linecap:butt;stroke-linejoin:round;stroke-miterlimit:10;stroke-dasharray:none;stroke-opacity:1"
                                   d="m 0,-3 c 0.795609,0 1.55874,0.316099 2.12132,0.87868 C 2.683901,-1.55874 3,-0.795609 3,0 3,0.795609 2.683901,1.55874 2.12132,2.12132 1.55874,2.683901 0.795609,3 0,3 -0.795609,3 -1.55874,2.683901 -2.12132,2.12132 -2.683901,1.55874 -3,0.795609 -3,0 -3,-0.795609 -2.683901,-1.55874 -2.12132,-2.12132 -1.55874,-2.683901 -0.795609,-3 0,-3 Z" /></g></g><g
                                 transform="translate(3.3066667)"
                                 id="g358"><g
                                   id="g360"><g
                                   clip-path="url(#clipPath366)"
                                   id="g362"><path
                                   id="path368"
                                   style="fill:#1b9e77;fill-opacity:1;fill-rule:nonzero;stroke:#1b9e77;stroke-width:1;stroke-linecap:butt;stroke-linejoin:round;stroke-miterlimit:10;stroke-dasharray:none;stroke-opacity:1"
                                   d="m 0,-3 c 0.795609,0 1.55874,0.316099 2.12132,0.87868 C 2.683901,-1.55874 3,-0.795609 3,0 3,0.795609 2.683901,1.55874 2.12132,2.12132 1.55874,2.683901 0.795609,3 0,3 -0.795609,3 -1.55874,2.683901 -2.12132,2.12132 -2.683901,1.55874 -3,0.795609 -3,0 -3,-0.795609 -2.683901,-1.55874 -2.12132,-2.12132 -1.55874,-2.683901 -0.795609,-3 0,-3 Z" /></g></g></g></g></g></g></g></g></g></g></g></g></g></g></g></g><g
       id="g370"><g
         clip-path="url(#clipPath376)"
         id="g372"><path
           id="path378"
           style="fill:none;stroke:#d95f02;stroke-width:1;stroke-linecap:round;stroke-linejoin:round;stroke-miterlimit:10;stroke-dasharray:none;stroke-opacity:1"
           d="m 53.653125,46.809375 4.133333,17.296364 4.133334,11.613272 8.266666,19.520182 16.533334,22.979457 16.533338,15.56672 33.06666,29.898 82.66667,37.31073 82.66666,30.39218 82.66667,42.25255 79.36,20.26145" /><g
           transform="translate(53.653125,46.809375)"
           id="g380"><g
             id="g382"><g
               clip-path="url(#clipPath388)"
               id="g384"><path
                 id="path390"
                 style="fill:#d95f02;fill-opacity:1;fill-rule:nonzero;stroke:#d95f02;stroke-width:1;stroke-linecap:butt;stroke-linejoin:miter;stroke-miterlimit:10;stroke-dasharray:none;stroke-opacity:1"
                 d="M -3,-3 H 3 V 3 H -3 Z" /></g></g><g
             transform="translate(4.1333333,17.296364)"
             id="g392"><g
               id="g394"><g
                 clip-path="url(#clipPath400)"
                 id="g396"><path
                   id="path402"
                   style="fill:#d95f02;fill-opacity:1;fill-rule:nonzero;stroke:#d95f02;stroke-width:1;stroke-linecap:butt;stroke-linejoin:miter;stroke-miterlimit:10;stroke-dasharray:none;stroke-opacity:1"
                   d="M -3,-3 H 3 V 3 H -3 Z" /></g></g><g
               transform="translate(4.1333333,11.613273)"
               id="g404"><g
                 id="g406"><g
                   clip-path="url(#clipPath412)"
                   id="g408"><path
                     id="path414"
                     style="fill:#d95f02;fill-opacity:1;fill-rule:nonzero;stroke:#d95f02;stroke-width:1;stroke-linecap:butt;stroke-linejoin:miter;stroke-miterlimit:10;stroke-dasharray:none;stroke-opacity:1"
                     d="M -3,-3 H 3 V 3 H -3 Z" /></g></g><g
                 transform="translate(8.2666667,19.520182)"
                 id="g416"><g
                   id="g418"><g
                     clip-path="url(#clipPath424)"
                     id="g420"><path
                       id="path426"
                       style="fill:#d95f02;fill-opacity:1;fill-rule:nonzero;stroke:#d95f02;stroke-width:1;stroke-linecap:butt;stroke-linejoin:miter;stroke-miterlimit:10;stroke-dasharray:none;stroke-opacity:1"
                       d="M -3,-3 H 3 V 3 H -3 Z" /></g></g><g
                   transform="translate(16.533333,22.979455)"
                   id="g428"><g
                     id="g430"><g
                       clip-path="url(#clipPath436)"
                       id="g432"><path
                         id="path438"
                         style="fill:#d95f02;fill-opacity:1;fill-rule:nonzero;stroke:#d95f02;stroke-width:1;stroke-linecap:butt;stroke-linejoin:miter;stroke-miterlimit:10;stroke-dasharray:none;stroke-opacity:1"
                         d="M -3,-3 H 3 V 3 H -3 Z" /></g></g><g
                     transform="translate(16.533333,15.566727)"
                     id="g440"><g
                       id="g442"><g
                         clip-path="url(#clipPath448)"
                         id="g444"><path
                           id="path450"
                           style="fill:#d95f02;fill-opacity:1;fill-rule:nonzero;stroke:#d95f02;stroke-width:1;stroke-linecap:butt;stroke-linejoin:miter;stroke-miterlimit:10;stroke-dasharray:none;stroke-opacity:1"
                           d="M -3,-3 H 3 V 3 H -3 Z" /></g></g><g
                       transform="translate(33.066667,29.898)"
                       id="g452"><g
                         id="g454"><g
                           clip-path="url(#clipPath460)"
                           id="g456"><path
                             id="path462"
                             style="fill:#d95f02;fill-opacity:1;fill-rule:nonzero;stroke:#d95f02;stroke-width:1;stroke-linecap:butt;stroke-linejoin:miter;stroke-miterlimit:10;stroke-dasharray:none;stroke-opacity:1"
                             d="M -3,-3 H 3 V 3 H -3 Z" /></g></g><g
                         transform="translate(82.666667,37.310727)"
                         id="g464"><g
                           id="g466"><g
                             clip-path="url(#clipPath472)"
                             id="g468"><path
                               id="path474"
                               style="fill:#d95f02;fill-opacity:1;fill-rule:nonzero;stroke:#d95f02;stroke-width:1;stroke-linecap:butt;stroke-linejoin:miter;stroke-miterlimit:10;stroke-dasharray:none;stroke-opacity:1"
                               d="M -3,-3 H 3 V 3 H -3 Z" /></g></g><g
                           transform="translate(82.666667,30.392182)"
                           id="g476"><g
                             id="g478"><g
                               clip-path="url(#clipPath484)"
                               id="g480"><path
                                 id="path486"
                                 style="fill:#d95f02;fill-opacity:1;fill-rule:nonzero;stroke:#d95f02;stroke-width:1;stroke-linecap:butt;stroke-linejoin:miter;stroke-miterlimit:10;stroke-dasharray:none;stroke-opacity:1"
                                 d="M -3,-3 H 3 V 3 H -3 Z" /></g></g><g
                             transform="translate(82.666667,42.252545)"
                             id="g488"><g
                               id="g490"><g
                                 clip-path="url(#clipPath496)"
                                 id="g492"><path
                                   id="path498"
                                   style="fill:#d95f02;fill-opacity:1;fill-rule:nonzero;stroke:#d95f02;stroke-width:1;stroke-linecap:butt;stroke-linejoin:miter;stroke-miterlimit:10;stroke-dasharray:none;stroke-opacity:1"
                                   d="M -3,-3 H 3 V 3 H -3 Z" /></g></g><g
                               transform="translate(79.36,20.261455)"
                               id="g500"><g
                                 id="g502"><g
                                   clip-path="url(#clipPath508)"
                                   id="g504"><path
                                   id="path510"
                                   style="fill:#d95f02;fill-opacity:1;fill-rule:nonzero;stroke:#d95f02;stroke-width:1;stroke-linecap:butt;stroke-linejoin:miter;stroke-miterlimit:10;stroke-dasharray:none;stroke-opacity:1"
                                   d="M -3,-3 H 3 V 3 H -3 Z" /></g></g></g></g></g></g></g></g></g></g></g></g></g></g></g><g
       id="g512"><g
         clip-path="url(#clipPath518)"
         id="g514"><path
           id="path520"
           style="fill:none;stroke:#7570b3;stroke-width:1;stroke-linecap:round;stroke-linejoin:round;stroke-miterlimit:10;stroke-dasharray:none;stroke-opacity:1"
           d="m 53.653125,46.809375 4.133333,51.889091 4.133334,22.732364 8.266666,30.63927 16.533334,42.00546 16.533338,27.67418 33.06666,72.15054" /><g
           transform="translate(53.653125,46.809375)"
           id="g522"><g
             id="g524"><g
               clip-path="url(#clipPath530)"
               id="g526"><path
                 id="path532"
                 style="fill:#7570b3;fill-opacity:1;fill-rule:nonzero;stroke:#7570b3;stroke-width:1;stroke-linecap:butt;stroke-linejoin:miter;stroke-miterlimit:10;stroke-dasharray:none;stroke-opacity:1"
                 d="M 0,3 -3,-3 H 3 Z" /></g></g><g
             transform="translate(4.1333333,51.889091)"
             id="g534"><g
               id="g536"><g
                 clip-path="url(#clipPath542)"
                 id="g538"><path
                   id="path544"
                   style="fill:#7570b3;fill-opacity:1;fill-rule:nonzero;stroke:#7570b3;stroke-width:1;stroke-linecap:butt;stroke-linejoin:miter;stroke-miterlimit:10;stroke-dasharray:none;stroke-opacity:1"
                   d="M 0,3 -3,-3 H 3 Z" /></g></g><g
               transform="translate(4.1333333,22.732364)"
               id="g546"><g
                 id="g548"><g
                   clip-path="url(#clipPath554)"
                   id="g550"><path
                     id="path556"
                     style="fill:#7570b3;fill-opacity:1;fill-rule:nonzero;stroke:#7570b3;stroke-width:1;stroke-linecap:butt;stroke-linejoin:miter;stroke-miterlimit:10;stroke-dasharray:none;stroke-opacity:1"
                     d="M 0,3 -3,-3 H 3 Z" /></g></g><g
                 transform="translate(8.2666667,30.639273)"
                 id="g558"><g
                   id="g560"><g
                     clip-path="url(#clipPath566)"
                     id="g562"><path
                       id="path568"
                       style="fill:#7570b3;fill-opacity:1;fill-rule:nonzero;stroke:#7570b3;stroke-width:1;stroke-linecap:butt;stroke-linejoin:miter;stroke-miterlimit:10;stroke-dasharray:none;stroke-opacity:1"
                       d="M 0,3 -3,-3 H 3 Z" /></g></g><g
                   transform="translate(16.533333,42.005455)"
                   id="g570"><g
                     id="g572"><g
                       clip-path="url(#clipPath578)"
                       id="g574"><path
                         id="path580"
                         style="fill:#7570b3;fill-opacity:1;fill-rule:nonzero;stroke:#7570b3;stroke-width:1;stroke-linecap:butt;stroke-linejoin:miter;stroke-miterlimit:10;stroke-dasharray:none;stroke-opacity:1"
                         d="M 0,3 -3,-3 H 3 Z" /></g></g><g
                     transform="translate(16.533333,27.674182)"
                     id="g582"><g
                       id="g584"><g
                         clip-path="url(#clipPath590)"
                         id="g586"><path
                           id="path592"
                           style="fill:#7570b3;fill-opacity:1;fill-rule:nonzero;stroke:#7570b3;stroke-width:1;stroke-linecap:butt;stroke-linejoin:miter;stroke-miterlimit:10;stroke-dasharray:none;stroke-opacity:1"
                           d="M 0,3 -3,-3 H 3 Z" /></g></g><g
                       transform="translate(33.066667,72.150545)"
                       id="g594"><g
                         id="g596"><g
                           clip-path="url(#clipPath602)"
                           id="g598"><path
                             id="path604"
                             style="fill:#7570b3;fill-opacity:1;fill-rule:nonzero;stroke:#7570b3;stroke-width:1;stroke-linecap:butt;stroke-linejoin:miter;stroke-miterlimit:10;stroke-dasharray:none;stroke-opacity:1"
                             d="M 0,3 -3,-3 H 3 Z" /></g></g></g></g></g></g></g></g></g></g></g><g
       id="g606"><path
         id="path608"
         style="fill:none;stroke:#1b9e77;stroke-width:1;stroke-linecap:round;stroke-linejoin:round;stroke-miterlimit:10;stroke-dasharray:none;stroke-opacity:1"
         d="m 403.525,118.27813 h 32" /><path
         id="path610"
         style="fill:#1b9e77;fill-opacity:1;fill-rule:nonzero;stroke:#1b9e77;stroke-width:1;stroke-linecap:butt;stroke-linejoin:round;stroke-miterlimit:10;stroke-dasharray:none;stroke-opacity:1"
         d="m 419.525,115.27813 c 0.79561,0 1.55874,0.31609 2.12132,0.87867 0.56258,0.56259 0.87868,1.32572 0.87868,2.12133 0,0.7956 -0.3161,1.55874 -0.87868,2.12132 -0.56258,0.56258 -1.32571,0.87868 -2.12132,0.87868 -0.79561,0 -1.55874,-0.3161 -2.12132,-0.87868 -0.56258,-0.56258 -0.87868,-1.32572 -0.87868,-2.12132 0,-0.79561 0.3161,-1.55874 0.87868,-2.12133 0.56258,-0.56258 1.32571,-0.87867 2.12132,-0.87867 z" /><text
         id="text614"
         style="font-variant:normal;font-weight:normal;font-size:16px;font-family:'Gentium Basic';-inkscape-font-specification:GentiumBasic;writing-mode:lr-tb;fill:#000000;fill-opacity:1;fill-rule:nonzero;stroke:none"
         transform="matrix(1,0,0,-1,448.325,112.67812)"><tspan
           id="tspan612"
           y="0"
           x="0 9.4879999 17.856001 27.344">DPDK</tspan></text>
<path
         id="path616"
         style="fill:none;stroke:#d95f02;stroke-width:1;stroke-linecap:round;stroke-linejoin:round;stroke-miterlimit:10;stroke-dasharray:none;stroke-opacity:1"
         d="m 403.525,94.41875 h 32" /><path
         id="path618"
         style="fill:#d95f02;fill-opacity:1;fill-rule:nonzero;stroke:#d95f02;stroke-width:1;stroke-linecap:butt;stroke-linejoin:miter;stroke-miterlimit:10;stroke-dasharray:none;stroke-opacity:1"
         d="m 416.525,91.41875 h 6 v 6 h -6 z" /><text
         id="text622"
         style="font-variant:normal;font-weight:normal;font-size:16px;font-family:'Gentium Basic';-inkscape-font-specification:GentiumBasic;writing-mode:lr-tb;fill:#000000;fill-opacity:1;fill-rule:nonzero;stroke:none"
         transform="matrix(1,0,0,-1,448.325,88.81875)"><tspan
           id="tspan620"
           y="0"
           x="0 9.8400002 19.327999">XDP</tspan></text>
<path
         id="path624"
         style="fill:none;stroke:#7570b3;stroke-width:1;stroke-linecap:round;stroke-linejoin:round;stroke-miterlimit:10;stroke-dasharray:none;stroke-opacity:1"
         d="m 403.525,70.559375 h 32" /><path
         id="path626"
         style="fill:#7570b3;fill-opacity:1;fill-rule:nonzero;stroke:#7570b3;stroke-width:1;stroke-linecap:butt;stroke-linejoin:miter;stroke-miterlimit:10;stroke-dasharray:none;stroke-opacity:1"
         d="m 419.525,73.559375 -3,-6 h 6 z" /><text
         id="text630"
         style="font-variant:normal;font-weight:normal;font-size:16px;font-family:'Gentium Basic';-inkscape-font-specification:GentiumBasic;writing-mode:lr-tb;fill:#000000;fill-opacity:1;fill-rule:nonzero;stroke:none"
         transform="matrix(1,0,0,-1,448.325,64.959375)"><tspan
           id="tspan628"
           y="0"
           x="0 7.6160002 11.952 20.784 29.264">Linux</tspan></text>
</g></g></svg>